<mxfile host="app.diagrams.net" modified="2020-11-23T03:01:06.725Z" agent="5.0 (Macintosh; Intel Mac OS X 10_15_7) AppleWebKit/537.36 (KHTML, like Gecko) Chrome/86.0.4240.198 Safari/537.36" etag="HPeUvoUXzEi37bXpYryX" version="13.9.8" type="github">
  <diagram name="Page-1" id="8378b5f6-a2b2-b727-a746-972ab9d02e00">
    <mxGraphModel dx="450" dy="265" grid="1" gridSize="10" guides="1" tooltips="1" connect="0" arrows="1" fold="1" page="1" pageScale="1.5" pageWidth="1169" pageHeight="827" background="#ffffff" math="0" shadow="0">
      <root>
        <mxCell id="0" />
        <mxCell id="1" parent="0" />
        <mxCell id="0kv2POSV4pIMgLlQA3oe-440" value="" style="group" parent="1" vertex="1" connectable="0">
          <mxGeometry x="1310" y="330" width="1720.0000000000011" height="860" as="geometry" />
        </mxCell>
        <mxCell id="0kv2POSV4pIMgLlQA3oe-415" value="" style="group" parent="0kv2POSV4pIMgLlQA3oe-440" vertex="1" connectable="0">
          <mxGeometry x="980.000000000001" y="3.6475984625909774e-11" width="280" height="859.9999999999635" as="geometry" />
        </mxCell>
        <mxCell id="0kv2POSV4pIMgLlQA3oe-278" value="" style="strokeColor=#DEEDFF" parent="0kv2POSV4pIMgLlQA3oe-415" vertex="1">
          <mxGeometry width="20.00000000000003" height="859.9999999999394" as="geometry" />
        </mxCell>
        <mxCell id="0kv2POSV4pIMgLlQA3oe-279" value="" style="strokeColor=#DEEDFF" parent="0kv2POSV4pIMgLlQA3oe-415" vertex="1">
          <mxGeometry x="20.00000000000003" width="20.00000000000003" height="859.9999999999394" as="geometry" />
        </mxCell>
        <mxCell id="0kv2POSV4pIMgLlQA3oe-280" value="" style="strokeColor=#DEEDFF" parent="0kv2POSV4pIMgLlQA3oe-415" vertex="1">
          <mxGeometry x="40.00000000000006" y="1.8049971773646072e-11" width="20.00000000000003" height="859.9999999999394" as="geometry" />
        </mxCell>
        <mxCell id="0kv2POSV4pIMgLlQA3oe-281" value="" style="strokeColor=#DEEDFF" parent="0kv2POSV4pIMgLlQA3oe-415" vertex="1">
          <mxGeometry x="60.00000000000008" y="2.40666290315281e-11" width="20.00000000000003" height="859.9999999999394" as="geometry" />
        </mxCell>
        <mxCell id="0kv2POSV4pIMgLlQA3oe-282" value="" style="strokeColor=#DEEDFF" parent="0kv2POSV4pIMgLlQA3oe-415" vertex="1">
          <mxGeometry x="80.00000000000011" y="2.40666290315281e-11" width="20.00000000000003" height="859.9999999999394" as="geometry" />
        </mxCell>
        <mxCell id="0kv2POSV4pIMgLlQA3oe-283" value="" style="strokeColor=#DEEDFF;fillColor=#D4E1FF" parent="0kv2POSV4pIMgLlQA3oe-415" vertex="1">
          <mxGeometry x="100.00000000000013" y="2.40666290315281e-11" width="20.00000000000003" height="859.9999999999394" as="geometry" />
        </mxCell>
        <mxCell id="0kv2POSV4pIMgLlQA3oe-284" value="" style="strokeColor=#DEEDFF;fillColor=#D4E1FF" parent="0kv2POSV4pIMgLlQA3oe-415" vertex="1">
          <mxGeometry x="120.00000000000016" y="2.40666290315281e-11" width="20.00000000000003" height="859.9999999999394" as="geometry" />
        </mxCell>
        <mxCell id="0kv2POSV4pIMgLlQA3oe-411" value="" style="group" parent="0kv2POSV4pIMgLlQA3oe-440" vertex="1" connectable="0">
          <mxGeometry x="1399.9999999999998" width="320.00000000000136" height="859.9999999999394" as="geometry" />
        </mxCell>
        <mxCell id="0kv2POSV4pIMgLlQA3oe-327" value="" style="strokeColor=#DEEDFF" parent="0kv2POSV4pIMgLlQA3oe-411" vertex="1">
          <mxGeometry y="3.647598462590721e-11" width="20.00000000000028" height="859.9999999998789" as="geometry" />
        </mxCell>
        <mxCell id="0kv2POSV4pIMgLlQA3oe-328" value="" style="strokeColor=#DEEDFF" parent="0kv2POSV4pIMgLlQA3oe-411" vertex="1">
          <mxGeometry x="20.00000000000028" y="3.647598462590721e-11" width="20.00000000000028" height="859.9999999998789" as="geometry" />
        </mxCell>
        <mxCell id="0kv2POSV4pIMgLlQA3oe-329" value="" style="strokeColor=#DEEDFF" parent="0kv2POSV4pIMgLlQA3oe-411" vertex="1">
          <mxGeometry x="40.00000000000056" y="5.4525956399552014e-11" width="20.00000000000028" height="859.9999999998789" as="geometry" />
        </mxCell>
        <mxCell id="0kv2POSV4pIMgLlQA3oe-330" value="" style="strokeColor=#DEEDFF" parent="0kv2POSV4pIMgLlQA3oe-411" vertex="1">
          <mxGeometry x="60.00000000000084" y="6.054261365743362e-11" width="20.00000000000028" height="859.9999999998789" as="geometry" />
        </mxCell>
        <mxCell id="0kv2POSV4pIMgLlQA3oe-331" value="" style="strokeColor=#DEEDFF" parent="0kv2POSV4pIMgLlQA3oe-411" vertex="1">
          <mxGeometry x="80.00000000000112" y="6.054261365743362e-11" width="20.00000000000028" height="859.9999999998789" as="geometry" />
        </mxCell>
        <mxCell id="0kv2POSV4pIMgLlQA3oe-332" value="" style="strokeColor=#DEEDFF;fillColor=#D4E1FF" parent="0kv2POSV4pIMgLlQA3oe-411" vertex="1">
          <mxGeometry x="100.00000000000139" y="6.054261365743362e-11" width="20.00000000000028" height="859.9999999998789" as="geometry" />
        </mxCell>
        <mxCell id="0kv2POSV4pIMgLlQA3oe-333" value="" style="strokeColor=#DEEDFF;fillColor=#D4E1FF" parent="0kv2POSV4pIMgLlQA3oe-411" vertex="1">
          <mxGeometry x="119.99999999999986" width="23.50000000000033" height="859.9999999998789" as="geometry" />
        </mxCell>
        <mxCell id="0kv2POSV4pIMgLlQA3oe-432" value="" style="group" parent="0kv2POSV4pIMgLlQA3oe-440" vertex="1" connectable="0">
          <mxGeometry x="420.00000000000034" y="3.7604107861762654e-13" width="140.0000000000002" height="859.9999999999695" as="geometry" />
        </mxCell>
        <mxCell id="0kv2POSV4pIMgLlQA3oe-433" value="" style="strokeColor=#DEEDFF" parent="0kv2POSV4pIMgLlQA3oe-432" vertex="1">
          <mxGeometry y="2.40666290315281e-11" width="20.00000000000003" height="859.9999999999394" as="geometry" />
        </mxCell>
        <mxCell id="0kv2POSV4pIMgLlQA3oe-434" value="" style="strokeColor=#DEEDFF" parent="0kv2POSV4pIMgLlQA3oe-432" vertex="1">
          <mxGeometry x="20.00000000000003" y="2.40666290315281e-11" width="20.00000000000003" height="859.9999999999394" as="geometry" />
        </mxCell>
        <mxCell id="0kv2POSV4pIMgLlQA3oe-435" value="" style="strokeColor=#DEEDFF" parent="0kv2POSV4pIMgLlQA3oe-432" vertex="1">
          <mxGeometry x="40.00000000000006" width="20.00000000000003" height="859.9999999999394" as="geometry" />
        </mxCell>
        <mxCell id="0kv2POSV4pIMgLlQA3oe-436" value="" style="strokeColor=#DEEDFF" parent="0kv2POSV4pIMgLlQA3oe-432" vertex="1">
          <mxGeometry x="60.00000000000008" y="6.016657257882025e-12" width="20.00000000000003" height="859.9999999999394" as="geometry" />
        </mxCell>
        <mxCell id="0kv2POSV4pIMgLlQA3oe-437" value="" style="strokeColor=#DEEDFF" parent="0kv2POSV4pIMgLlQA3oe-432" vertex="1">
          <mxGeometry x="80.00000000000011" y="6.016657257882025e-12" width="20.00000000000003" height="859.9999999999394" as="geometry" />
        </mxCell>
        <mxCell id="0kv2POSV4pIMgLlQA3oe-438" value="" style="strokeColor=#DEEDFF;fillColor=#D4E1FF" parent="0kv2POSV4pIMgLlQA3oe-432" vertex="1">
          <mxGeometry x="100.00000000000013" y="6.016657257882025e-12" width="20.00000000000003" height="859.9999999999394" as="geometry" />
        </mxCell>
        <mxCell id="0kv2POSV4pIMgLlQA3oe-439" value="" style="strokeColor=#DEEDFF;fillColor=#D4E1FF" parent="0kv2POSV4pIMgLlQA3oe-432" vertex="1">
          <mxGeometry x="120.00000000000016" y="2.40666290315281e-11" width="20.00000000000003" height="859.9999999999394" as="geometry" />
        </mxCell>
        <mxCell id="0kv2POSV4pIMgLlQA3oe-420" value="" style="group" parent="0kv2POSV4pIMgLlQA3oe-440" vertex="1" connectable="0">
          <mxGeometry x="280.00000000000017" y="3.7604107861762654e-13" width="140.0000000000002" height="859.9999999999635" as="geometry" />
        </mxCell>
        <mxCell id="207" value="" style="strokeColor=#DEEDFF" parent="0kv2POSV4pIMgLlQA3oe-420" vertex="1">
          <mxGeometry y="2.40666290315281e-11" width="20.00000000000003" height="859.9999999999394" as="geometry" />
        </mxCell>
        <mxCell id="208" value="" style="strokeColor=#DEEDFF" parent="0kv2POSV4pIMgLlQA3oe-420" vertex="1">
          <mxGeometry x="20.00000000000003" y="2.40666290315281e-11" width="20.00000000000003" height="859.9999999999394" as="geometry" />
        </mxCell>
        <mxCell id="209" value="" style="strokeColor=#DEEDFF" parent="0kv2POSV4pIMgLlQA3oe-420" vertex="1">
          <mxGeometry x="40.00000000000006" width="20.00000000000003" height="859.9999999999394" as="geometry" />
        </mxCell>
        <mxCell id="210" value="" style="strokeColor=#DEEDFF" parent="0kv2POSV4pIMgLlQA3oe-420" vertex="1">
          <mxGeometry x="60.00000000000008" y="6.016657257882025e-12" width="20.00000000000003" height="859.9999999999394" as="geometry" />
        </mxCell>
        <mxCell id="211" value="" style="strokeColor=#DEEDFF" parent="0kv2POSV4pIMgLlQA3oe-420" vertex="1">
          <mxGeometry x="80.00000000000011" y="6.016657257882025e-12" width="20.00000000000003" height="859.9999999999394" as="geometry" />
        </mxCell>
        <mxCell id="212" value="" style="strokeColor=#DEEDFF;fillColor=#D4E1FF" parent="0kv2POSV4pIMgLlQA3oe-420" vertex="1">
          <mxGeometry x="100.00000000000013" y="6.016657257882025e-12" width="20.00000000000003" height="859.9999999999394" as="geometry" />
        </mxCell>
        <mxCell id="213" value="" style="strokeColor=#DEEDFF;fillColor=#D4E1FF" parent="0kv2POSV4pIMgLlQA3oe-420" vertex="1">
          <mxGeometry x="120.00000000000016" y="2.40666290315281e-11" width="20.00000000000003" height="859.9999999999394" as="geometry" />
        </mxCell>
        <mxCell id="0kv2POSV4pIMgLlQA3oe-421" value="" style="group" parent="0kv2POSV4pIMgLlQA3oe-440" vertex="1" connectable="0">
          <mxGeometry x="140.0000000000002" y="1.2409355594381676e-11" width="139.99999999999997" height="859.9999999999515" as="geometry" />
        </mxCell>
        <mxCell id="200" value="" style="strokeColor=#DEEDFF" parent="0kv2POSV4pIMgLlQA3oe-421" vertex="1">
          <mxGeometry width="20.00000000000003" height="859.9999999999394" as="geometry" />
        </mxCell>
        <mxCell id="201" value="" style="strokeColor=#DEEDFF" parent="0kv2POSV4pIMgLlQA3oe-421" vertex="1">
          <mxGeometry x="19.99999999999957" width="20.00000000000003" height="859.9999999999394" as="geometry" />
        </mxCell>
        <mxCell id="202" value="" style="strokeColor=#DEEDFF" parent="0kv2POSV4pIMgLlQA3oe-421" vertex="1">
          <mxGeometry x="39.999999999999595" y="6.016657257882025e-12" width="20.00000000000003" height="859.9999999999394" as="geometry" />
        </mxCell>
        <mxCell id="203" value="" style="strokeColor=#DEEDFF" parent="0kv2POSV4pIMgLlQA3oe-421" vertex="1">
          <mxGeometry x="59.99999999999962" y="6.016657257882025e-12" width="20.00000000000003" height="859.9999999999394" as="geometry" />
        </mxCell>
        <mxCell id="204" value="" style="strokeColor=#DEEDFF" parent="0kv2POSV4pIMgLlQA3oe-421" vertex="1">
          <mxGeometry x="79.99999999999964" y="6.016657257882025e-12" width="20.00000000000003" height="859.9999999999394" as="geometry" />
        </mxCell>
        <mxCell id="205" value="" style="strokeColor=#DEEDFF;fillColor=#D4E1FF" parent="0kv2POSV4pIMgLlQA3oe-421" vertex="1">
          <mxGeometry x="99.9999999999999" y="6.016657257882025e-12" width="20.00000000000003" height="859.9999999999394" as="geometry" />
        </mxCell>
        <mxCell id="206" value="" style="strokeColor=#DEEDFF;fillColor=#D4E1FF" parent="0kv2POSV4pIMgLlQA3oe-421" vertex="1">
          <mxGeometry x="119.99999999999993" y="1.203331451576405e-11" width="20.00000000000003" height="859.9999999999394" as="geometry" />
        </mxCell>
        <mxCell id="0kv2POSV4pIMgLlQA3oe-422" value="" style="group" parent="0kv2POSV4pIMgLlQA3oe-440" vertex="1" connectable="0">
          <mxGeometry y="3.7604107861762654e-13" width="1140" height="859.9999999999515" as="geometry" />
        </mxCell>
        <mxCell id="68" value="" style="strokeColor=#DEEDFF" parent="0kv2POSV4pIMgLlQA3oe-422" vertex="1">
          <mxGeometry width="20.00000000000003" height="859.9999999999394" as="geometry" />
        </mxCell>
        <mxCell id="194" value="" style="strokeColor=#DEEDFF" parent="0kv2POSV4pIMgLlQA3oe-422" vertex="1">
          <mxGeometry x="20.00000000000003" y="6.016657257882025e-12" width="20.00000000000003" height="859.9999999999394" as="geometry" />
        </mxCell>
        <mxCell id="195" value="" style="strokeColor=#DEEDFF" parent="0kv2POSV4pIMgLlQA3oe-422" vertex="1">
          <mxGeometry x="40.00000000000006" y="6.016657257882025e-12" width="20.00000000000003" height="859.9999999999394" as="geometry" />
        </mxCell>
        <mxCell id="196" value="" style="strokeColor=#DEEDFF" parent="0kv2POSV4pIMgLlQA3oe-422" vertex="1">
          <mxGeometry x="60.00000000000008" y="6.016657257882025e-12" width="20.00000000000003" height="859.9999999999394" as="geometry" />
        </mxCell>
        <mxCell id="197" value="" style="strokeColor=#DEEDFF" parent="0kv2POSV4pIMgLlQA3oe-422" vertex="1">
          <mxGeometry x="80.00000000000011" y="6.016657257882025e-12" width="20.00000000000003" height="859.9999999999394" as="geometry" />
        </mxCell>
        <mxCell id="198" value="" style="strokeColor=#DEEDFF;fillColor=#D4E1FF" parent="0kv2POSV4pIMgLlQA3oe-422" vertex="1">
          <mxGeometry x="100.00000000000013" y="1.203331451576405e-11" width="20.00000000000003" height="859.9999999999394" as="geometry" />
        </mxCell>
        <mxCell id="199" value="" style="strokeColor=#DEEDFF;fillColor=#D4E1FF" parent="0kv2POSV4pIMgLlQA3oe-422" vertex="1">
          <mxGeometry x="120.00000000000016" y="1.203331451576405e-11" width="20.00000000000003" height="859.9999999999394" as="geometry" />
        </mxCell>
        <mxCell id="0kv2POSV4pIMgLlQA3oe-418" value="" style="group" parent="0kv2POSV4pIMgLlQA3oe-440" vertex="1" connectable="0">
          <mxGeometry x="560.0000000000008" y="3.6475984625909774e-11" width="139.99999999999974" height="859.9999999999515" as="geometry" />
        </mxCell>
        <mxCell id="0kv2POSV4pIMgLlQA3oe-380" value="" style="strokeColor=#DEEDFF" parent="0kv2POSV4pIMgLlQA3oe-418" vertex="1">
          <mxGeometry x="59.99999999999962" y="6.016657257882025e-12" width="20.00000000000003" height="859.9999999999394" as="geometry" />
        </mxCell>
        <mxCell id="221" value="" style="strokeColor=#DEEDFF" parent="0kv2POSV4pIMgLlQA3oe-418" vertex="1">
          <mxGeometry width="20.00000000000003" height="859.9999999999394" as="geometry" />
        </mxCell>
        <mxCell id="222" value="" style="strokeColor=#DEEDFF" parent="0kv2POSV4pIMgLlQA3oe-418" vertex="1">
          <mxGeometry x="20.00000000000003" y="6.016657257882025e-12" width="20.00000000000003" height="859.9999999999394" as="geometry" />
        </mxCell>
        <mxCell id="223" value="" style="strokeColor=#DEEDFF" parent="0kv2POSV4pIMgLlQA3oe-418" vertex="1">
          <mxGeometry x="40.00000000000006" y="6.016657257882025e-12" width="20.00000000000003" height="859.9999999999394" as="geometry" />
        </mxCell>
        <mxCell id="225" value="" style="strokeColor=#DEEDFF" parent="0kv2POSV4pIMgLlQA3oe-418" vertex="1">
          <mxGeometry x="79.99999999999964" y="6.016657257882025e-12" width="20.00000000000003" height="859.9999999999394" as="geometry" />
        </mxCell>
        <mxCell id="226" value="" style="strokeColor=#DEEDFF;fillColor=#D4E1FF" parent="0kv2POSV4pIMgLlQA3oe-418" vertex="1">
          <mxGeometry x="99.99999999999967" y="1.203331451576405e-11" width="20.00000000000003" height="859.9999999999394" as="geometry" />
        </mxCell>
        <mxCell id="227" value="" style="strokeColor=#DEEDFF;fillColor=#D4E1FF" parent="0kv2POSV4pIMgLlQA3oe-418" vertex="1">
          <mxGeometry x="119.9999999999997" y="1.203331451576405e-11" width="20.00000000000003" height="859.9999999999394" as="geometry" />
        </mxCell>
        <mxCell id="0kv2POSV4pIMgLlQA3oe-417" value="" style="group" parent="0kv2POSV4pIMgLlQA3oe-440" vertex="1" connectable="0">
          <mxGeometry x="699.9999999999989" width="180.00000000000114" height="859.9999999999394" as="geometry" />
        </mxCell>
        <mxCell id="228" value="" style="strokeColor=#DEEDFF" parent="0kv2POSV4pIMgLlQA3oe-417" vertex="1">
          <mxGeometry y="1.8049971773645568e-11" width="19.999999999999993" height="859.9999999999154" as="geometry" />
        </mxCell>
        <mxCell id="229" value="" style="strokeColor=#DEEDFF" parent="0kv2POSV4pIMgLlQA3oe-417" vertex="1">
          <mxGeometry x="19.999999999999993" y="1.8049971773645568e-11" width="19.999999999999993" height="859.9999999999154" as="geometry" />
        </mxCell>
        <mxCell id="230" value="" style="strokeColor=#DEEDFF" parent="0kv2POSV4pIMgLlQA3oe-417" vertex="1">
          <mxGeometry x="40.00000000000022" y="2.4066629031527427e-11" width="19.999999999999993" height="859.9999999999154" as="geometry" />
        </mxCell>
        <mxCell id="231" value="" style="strokeColor=#DEEDFF" parent="0kv2POSV4pIMgLlQA3oe-417" vertex="1">
          <mxGeometry x="60.000000000000206" y="2.4066629031527427e-11" width="19.999999999999993" height="859.9999999999154" as="geometry" />
        </mxCell>
        <mxCell id="232" value="" style="strokeColor=#DEEDFF" parent="0kv2POSV4pIMgLlQA3oe-417" vertex="1">
          <mxGeometry x="80.00000000000021" y="2.4066629031527427e-11" width="19.999999999999993" height="859.9999999999154" as="geometry" />
        </mxCell>
        <mxCell id="233" value="" style="strokeColor=#DEEDFF;fillColor=#D4E1FF" parent="0kv2POSV4pIMgLlQA3oe-417" vertex="1">
          <mxGeometry x="100.00000000000018" width="19.999999999999993" height="859.9999999999154" as="geometry" />
        </mxCell>
        <mxCell id="234" value="" style="strokeColor=#DEEDFF;fillColor=#D4E1FF" parent="0kv2POSV4pIMgLlQA3oe-417" vertex="1">
          <mxGeometry x="120.00000000000018" y="6.016657257881857e-12" width="19.999999999999993" height="859.9999999999154" as="geometry" />
        </mxCell>
        <mxCell id="0kv2POSV4pIMgLlQA3oe-555" value="Han LY" style="shape=mxgraph.flowchart.process;fillColor=#AE4132;strokeColor=none;strokeWidth=2;opacity=50" parent="0kv2POSV4pIMgLlQA3oe-417" vertex="1">
          <mxGeometry x="-99.99999999999886" y="500" width="280" height="20" as="geometry" />
        </mxCell>
        <mxCell id="0kv2POSV4pIMgLlQA3oe-416" value="" style="group" parent="0kv2POSV4pIMgLlQA3oe-440" vertex="1" connectable="0">
          <mxGeometry x="840.0000000000009" y="3.6475984625909774e-11" width="179.9999999999991" height="859.9999999999635" as="geometry" />
        </mxCell>
        <mxCell id="235" value="" style="strokeColor=#DEEDFF" parent="0kv2POSV4pIMgLlQA3oe-416" vertex="1">
          <mxGeometry width="20.00000000000003" height="859.9999999999394" as="geometry" />
        </mxCell>
        <mxCell id="236" value="" style="strokeColor=#DEEDFF" parent="0kv2POSV4pIMgLlQA3oe-416" vertex="1">
          <mxGeometry x="20.00000000000003" width="20.00000000000003" height="859.9999999999394" as="geometry" />
        </mxCell>
        <mxCell id="237" value="" style="strokeColor=#DEEDFF" parent="0kv2POSV4pIMgLlQA3oe-416" vertex="1">
          <mxGeometry x="40.00000000000006" y="1.8049971773646072e-11" width="20.00000000000003" height="859.9999999999394" as="geometry" />
        </mxCell>
        <mxCell id="238" value="" style="strokeColor=#DEEDFF" parent="0kv2POSV4pIMgLlQA3oe-416" vertex="1">
          <mxGeometry x="60.00000000000008" y="2.40666290315281e-11" width="20.00000000000003" height="859.9999999999394" as="geometry" />
        </mxCell>
        <mxCell id="239" value="" style="strokeColor=#DEEDFF" parent="0kv2POSV4pIMgLlQA3oe-416" vertex="1">
          <mxGeometry x="80.00000000000011" y="2.40666290315281e-11" width="20.00000000000003" height="859.9999999999394" as="geometry" />
        </mxCell>
        <mxCell id="240" value="" style="strokeColor=#DEEDFF;fillColor=#D4E1FF" parent="0kv2POSV4pIMgLlQA3oe-416" vertex="1">
          <mxGeometry x="100.00000000000013" y="2.40666290315281e-11" width="20.00000000000003" height="859.9999999999394" as="geometry" />
        </mxCell>
        <mxCell id="241" value="" style="strokeColor=#DEEDFF;fillColor=#D4E1FF" parent="0kv2POSV4pIMgLlQA3oe-416" vertex="1">
          <mxGeometry x="120.00000000000016" y="2.40666290315281e-11" width="20.00000000000003" height="859.9999999999394" as="geometry" />
        </mxCell>
        <mxCell id="0kv2POSV4pIMgLlQA3oe-556" value="Han LY" style="shape=mxgraph.flowchart.process;fillColor=#f8cecc;strokeColor=#b85450;strokeWidth=2;opacity=80;" parent="0kv2POSV4pIMgLlQA3oe-416" vertex="1">
          <mxGeometry x="-240.0000000000009" y="479.9999999999635" width="420" height="20" as="geometry" />
        </mxCell>
        <mxCell id="0kv2POSV4pIMgLlQA3oe-566" value="" style="shape=mxgraph.arrows.bent_right_arrow;fillColor=#AE4132;strokeColor=none;strokeWidth=2;direction=south" parent="0kv2POSV4pIMgLlQA3oe-416" vertex="1">
          <mxGeometry x="1.1368683772161603e-12" y="509.99999999996317" width="10.000000000000341" height="9.99999999999983" as="geometry" />
        </mxCell>
        <mxCell id="0kv2POSV4pIMgLlQA3oe-564" value="Han LY" style="shape=mxgraph.flowchart.process;fillColor=#AE4132;strokeColor=none;strokeWidth=2;opacity=50" parent="0kv2POSV4pIMgLlQA3oe-416" vertex="1">
          <mxGeometry x="-9.094947017729282e-13" y="519.9999999999635" width="140" height="20" as="geometry" />
        </mxCell>
        <mxCell id="0kv2POSV4pIMgLlQA3oe-565" value="Han LY" style="shape=mxgraph.flowchart.process;fillColor=#AE4132;strokeWidth=2;opacity=50;strokeColor=#F7F7F7;" parent="0kv2POSV4pIMgLlQA3oe-416" vertex="1">
          <mxGeometry x="-9.094947017729282e-13" y="539.9999999999635" width="140" height="20" as="geometry" />
        </mxCell>
        <mxCell id="0kv2POSV4pIMgLlQA3oe-413" value="" style="group" parent="0kv2POSV4pIMgLlQA3oe-440" vertex="1" connectable="0">
          <mxGeometry x="1120.0000000000014" y="3.6475984625909774e-11" width="470" height="859.9999999999635" as="geometry" />
        </mxCell>
        <mxCell id="278" value="" style="shape=mxgraph.arrows.bent_right_arrow;fillColor=#AE4132;strokeColor=none;strokeWidth=2;direction=south" parent="0kv2POSV4pIMgLlQA3oe-413" vertex="1">
          <mxGeometry x="60.00000000000008" y="678.0769230768411" width="10.000000000000355" height="16.53846153846009" as="geometry" />
        </mxCell>
        <mxCell id="0kv2POSV4pIMgLlQA3oe-414" value="" style="group" parent="0kv2POSV4pIMgLlQA3oe-413" vertex="1" connectable="0">
          <mxGeometry width="470" height="859.9999999999635" as="geometry" />
        </mxCell>
        <mxCell id="0kv2POSV4pIMgLlQA3oe-297" value="" style="strokeColor=#DEEDFF" parent="0kv2POSV4pIMgLlQA3oe-414" vertex="1">
          <mxGeometry width="20.00000000000003" height="859.9999999999394" as="geometry" />
        </mxCell>
        <mxCell id="0kv2POSV4pIMgLlQA3oe-298" value="" style="strokeColor=#DEEDFF" parent="0kv2POSV4pIMgLlQA3oe-414" vertex="1">
          <mxGeometry x="20.00000000000003" width="20.00000000000003" height="859.9999999999394" as="geometry" />
        </mxCell>
        <mxCell id="0kv2POSV4pIMgLlQA3oe-299" value="" style="strokeColor=#DEEDFF" parent="0kv2POSV4pIMgLlQA3oe-414" vertex="1">
          <mxGeometry x="40.00000000000006" y="1.8049971773646072e-11" width="20.00000000000003" height="859.9999999999394" as="geometry" />
        </mxCell>
        <mxCell id="0kv2POSV4pIMgLlQA3oe-300" value="" style="strokeColor=#DEEDFF" parent="0kv2POSV4pIMgLlQA3oe-414" vertex="1">
          <mxGeometry x="60.00000000000008" y="2.40666290315281e-11" width="20.00000000000003" height="859.9999999999394" as="geometry" />
        </mxCell>
        <mxCell id="0kv2POSV4pIMgLlQA3oe-301" value="" style="strokeColor=#DEEDFF" parent="0kv2POSV4pIMgLlQA3oe-414" vertex="1">
          <mxGeometry x="80.00000000000011" y="2.40666290315281e-11" width="20.00000000000003" height="859.9999999999394" as="geometry" />
        </mxCell>
        <mxCell id="0kv2POSV4pIMgLlQA3oe-302" value="" style="strokeColor=#DEEDFF;fillColor=#D4E1FF" parent="0kv2POSV4pIMgLlQA3oe-414" vertex="1">
          <mxGeometry x="100.00000000000013" y="2.40666290315281e-11" width="20.00000000000003" height="859.9999999999394" as="geometry" />
        </mxCell>
        <mxCell id="0kv2POSV4pIMgLlQA3oe-303" value="" style="strokeColor=#DEEDFF;fillColor=#D4E1FF" parent="0kv2POSV4pIMgLlQA3oe-414" vertex="1">
          <mxGeometry x="120.00000000000016" y="2.40666290315281e-11" width="20.00000000000003" height="859.9999999999394" as="geometry" />
        </mxCell>
        <mxCell id="i1vYWbwsdPDP4e0yzq_W-280" value="Tao CY" style="shape=mxgraph.flowchart.process;fillColor=#AE4132;strokeColor=none;strokeWidth=2;opacity=50" vertex="1" parent="0kv2POSV4pIMgLlQA3oe-414">
          <mxGeometry x="-120" y="340" width="260" height="20" as="geometry" />
        </mxCell>
        <mxCell id="0kv2POSV4pIMgLlQA3oe-561" value="" style="shape=mxgraph.flowchart.process;fillColor=#AE4132;strokeColor=none;strokeWidth=2;opacity=50" parent="0kv2POSV4pIMgLlQA3oe-414" vertex="1">
          <mxGeometry x="-119.00000000000045" y="720" width="260" height="20" as="geometry" />
        </mxCell>
        <mxCell id="0kv2POSV4pIMgLlQA3oe-578" value="" style="shape=mxgraph.flowchart.process;fillColor=#AE4132;strokeColor=none;strokeWidth=2;opacity=50" parent="0kv2POSV4pIMgLlQA3oe-414" vertex="1">
          <mxGeometry x="-120" y="800" width="260" height="20" as="geometry" />
        </mxCell>
        <mxCell id="0kv2POSV4pIMgLlQA3oe-412" value="" style="group" parent="0kv2POSV4pIMgLlQA3oe-440" vertex="1" connectable="0">
          <mxGeometry x="1260.0000000000014" y="3.6475984625909774e-11" width="410" height="859.9999999999635" as="geometry" />
        </mxCell>
        <mxCell id="0kv2POSV4pIMgLlQA3oe-567" value="Zhou SY" style="shape=mxgraph.flowchart.process;fillColor=#f8cecc;strokeColor=#b85450;strokeWidth=2;opacity=80;" parent="0kv2POSV4pIMgLlQA3oe-412" vertex="1">
          <mxGeometry x="-1080.0000000000014" y="559.9999999999635" width="540" height="20" as="geometry" />
        </mxCell>
        <mxCell id="0kv2POSV4pIMgLlQA3oe-312" value="" style="strokeColor=#DEEDFF" parent="0kv2POSV4pIMgLlQA3oe-412" vertex="1">
          <mxGeometry width="20.00000000000003" height="859.9999999999394" as="geometry" />
        </mxCell>
        <mxCell id="0kv2POSV4pIMgLlQA3oe-313" value="" style="strokeColor=#DEEDFF" parent="0kv2POSV4pIMgLlQA3oe-412" vertex="1">
          <mxGeometry x="20.00000000000003" width="20.00000000000003" height="859.9999999999394" as="geometry" />
        </mxCell>
        <mxCell id="0kv2POSV4pIMgLlQA3oe-314" value="" style="strokeColor=#DEEDFF" parent="0kv2POSV4pIMgLlQA3oe-412" vertex="1">
          <mxGeometry x="40.00000000000006" y="1.8049971773646072e-11" width="20.00000000000003" height="859.9999999999394" as="geometry" />
        </mxCell>
        <mxCell id="0kv2POSV4pIMgLlQA3oe-315" value="" style="strokeColor=#DEEDFF" parent="0kv2POSV4pIMgLlQA3oe-412" vertex="1">
          <mxGeometry x="60.00000000000008" y="2.40666290315281e-11" width="20.00000000000003" height="859.9999999999394" as="geometry" />
        </mxCell>
        <mxCell id="0kv2POSV4pIMgLlQA3oe-316" value="" style="strokeColor=#DEEDFF" parent="0kv2POSV4pIMgLlQA3oe-412" vertex="1">
          <mxGeometry x="80.00000000000011" y="2.40666290315281e-11" width="20.00000000000003" height="859.9999999999394" as="geometry" />
        </mxCell>
        <mxCell id="0kv2POSV4pIMgLlQA3oe-317" value="" style="strokeColor=#DEEDFF;fillColor=#D4E1FF" parent="0kv2POSV4pIMgLlQA3oe-412" vertex="1">
          <mxGeometry x="100.00000000000013" y="2.40666290315281e-11" width="20.00000000000003" height="859.9999999999394" as="geometry" />
        </mxCell>
        <mxCell id="0kv2POSV4pIMgLlQA3oe-318" value="" style="strokeColor=#DEEDFF;fillColor=#D4E1FF" parent="0kv2POSV4pIMgLlQA3oe-412" vertex="1">
          <mxGeometry x="120.00000000000016" y="2.40666290315281e-11" width="20.00000000000003" height="859.9999999999394" as="geometry" />
        </mxCell>
        <mxCell id="0kv2POSV4pIMgLlQA3oe-557" value="Zhou SY" style="shape=mxgraph.flowchart.process;fillColor=#AE4132;strokeColor=none;strokeWidth=2;opacity=50" parent="0kv2POSV4pIMgLlQA3oe-412" vertex="1">
          <mxGeometry x="-1080" y="580" width="260" height="20" as="geometry" />
        </mxCell>
        <mxCell id="0kv2POSV4pIMgLlQA3oe-558" value="Zhou SY" style="shape=mxgraph.flowchart.process;fillColor=#AE4132;strokeWidth=2;opacity=50;strokeColor=#F2F2F2;" parent="0kv2POSV4pIMgLlQA3oe-412" vertex="1">
          <mxGeometry x="-820" y="600" width="120" height="20" as="geometry" />
        </mxCell>
        <mxCell id="0kv2POSV4pIMgLlQA3oe-559" value="Zhou SY" style="shape=mxgraph.flowchart.process;fillColor=#AE4132;strokeColor=none;strokeWidth=2;opacity=50" parent="0kv2POSV4pIMgLlQA3oe-412" vertex="1">
          <mxGeometry x="-700.0000000000014" y="619.9999999999635" width="160" height="20" as="geometry" />
        </mxCell>
        <mxCell id="0kv2POSV4pIMgLlQA3oe-560" value="Zhou SY" style="shape=mxgraph.flowchart.process;fillColor=#AE4132;strokeColor=none;strokeWidth=2;opacity=50" parent="0kv2POSV4pIMgLlQA3oe-412" vertex="1">
          <mxGeometry x="-540.0000000000014" y="659.9999999999635" width="120" height="20" as="geometry" />
        </mxCell>
        <mxCell id="0kv2POSV4pIMgLlQA3oe-568" value="" style="shape=mxgraph.arrows.bent_right_arrow;fillColor=#AE4132;strokeColor=none;strokeWidth=2;direction=south" parent="0kv2POSV4pIMgLlQA3oe-412" vertex="1">
          <mxGeometry x="-698.9999999999993" y="608.9999999999632" width="10.000000000000341" height="9.99999999999983" as="geometry" />
        </mxCell>
        <mxCell id="0kv2POSV4pIMgLlQA3oe-570" value="Zhou SY" style="shape=mxgraph.flowchart.process;fillColor=#f8cecc;strokeColor=#b85450;strokeWidth=2;opacity=80;" parent="0kv2POSV4pIMgLlQA3oe-412" vertex="1">
          <mxGeometry x="-540.0000000000014" y="639.9999999999635" width="280" height="20" as="geometry" />
        </mxCell>
        <mxCell id="0kv2POSV4pIMgLlQA3oe-571" value="" style="shape=mxgraph.arrows.bent_right_arrow;fillColor=#AE4132;strokeColor=none;strokeWidth=2;direction=south" parent="0kv2POSV4pIMgLlQA3oe-412" vertex="1">
          <mxGeometry x="-539.9999999999993" y="629.9999999999632" width="10.000000000000341" height="9.99999999999983" as="geometry" />
        </mxCell>
        <mxCell id="0kv2POSV4pIMgLlQA3oe-572" value="Zhou SY" style="shape=mxgraph.flowchart.process;fillColor=#AE4132;strokeWidth=2;opacity=50;strokeColor=none;" parent="0kv2POSV4pIMgLlQA3oe-412" vertex="1">
          <mxGeometry x="-420.00000000000136" y="679.9999999999635" width="160" height="20" as="geometry" />
        </mxCell>
        <mxCell id="0kv2POSV4pIMgLlQA3oe-573" value="" style="shape=mxgraph.arrows.bent_right_arrow;fillColor=#AE4132;strokeColor=none;strokeWidth=2;direction=south" parent="0kv2POSV4pIMgLlQA3oe-412" vertex="1">
          <mxGeometry x="-419.99999999999955" y="669.9999999999632" width="10.000000000000341" height="9.99999999999983" as="geometry" />
        </mxCell>
        <mxCell id="0kv2POSV4pIMgLlQA3oe-575" value="" style="shape=mxgraph.flowchart.process;fillColor=#AE4132;strokeColor=none;strokeWidth=2;opacity=50" parent="0kv2POSV4pIMgLlQA3oe-412" vertex="1">
          <mxGeometry x="-260.00000000000136" y="739.9999999999635" width="420" height="20" as="geometry" />
        </mxCell>
        <mxCell id="0kv2POSV4pIMgLlQA3oe-576" value="" style="shape=mxgraph.flowchart.process;fillColor=#f8cecc;strokeColor=#b85450;strokeWidth=2;opacity=80;" parent="0kv2POSV4pIMgLlQA3oe-412" vertex="1">
          <mxGeometry x="-260.00000000000136" y="759.9999999999635" width="420" height="20" as="geometry" />
        </mxCell>
        <mxCell id="0kv2POSV4pIMgLlQA3oe-577" value="" style="shape=mxgraph.flowchart.process;fillColor=#AE4132;strokeColor=none;strokeWidth=2;opacity=50" parent="0kv2POSV4pIMgLlQA3oe-412" vertex="1">
          <mxGeometry x="-260" y="780" width="260" height="20" as="geometry" />
        </mxCell>
        <mxCell id="0kv2POSV4pIMgLlQA3oe-579" value="" style="shape=mxgraph.flowchart.process;fillColor=#AE4132;strokeWidth=2;opacity=50;strokeColor=#FFFFFF;" parent="0kv2POSV4pIMgLlQA3oe-412" vertex="1">
          <mxGeometry x="-260.00000000000136" y="819.9999999999635" width="420" height="20" as="geometry" />
        </mxCell>
        <mxCell id="0kv2POSV4pIMgLlQA3oe-563" value="Zhou SY &amp; Han LY" style="shape=mxgraph.flowchart.process;strokeWidth=2;opacity=50;fillColor=#AE4132;" parent="0kv2POSV4pIMgLlQA3oe-412" vertex="1">
          <mxGeometry x="-1080.0000000000014" y="459.9999999999635" width="1240" height="20" as="geometry" />
        </mxCell>
        <mxCell id="0kv2POSV4pIMgLlQA3oe-404" value="Tao CY &amp; Han LY &amp; Chen YX" style="shape=mxgraph.flowchart.process;fillColor=#f8cecc;strokeColor=#b85450;strokeWidth=2;opacity=80;" parent="0kv2POSV4pIMgLlQA3oe-412" vertex="1">
          <mxGeometry x="-260.00000000000136" y="319.9999999999635" width="420" height="20" as="geometry" />
        </mxCell>
        <mxCell id="i1vYWbwsdPDP4e0yzq_W-278" value="Tao CY &amp; Han LY &amp; Chen YX" style="shape=mxgraph.flowchart.process;fillColor=#f8cecc;strokeColor=#b85450;strokeWidth=2;opacity=80;" vertex="1" parent="0kv2POSV4pIMgLlQA3oe-412">
          <mxGeometry x="-260.00000000000136" y="379.9999999999635" width="420" height="20" as="geometry" />
        </mxCell>
        <mxCell id="i1vYWbwsdPDP4e0yzq_W-281" value="Tao CY" style="shape=mxgraph.flowchart.process;fillColor=#AE4132;strokeColor=none;strokeWidth=2;opacity=50" vertex="1" parent="0kv2POSV4pIMgLlQA3oe-412">
          <mxGeometry x="-259" y="359" width="399" height="20" as="geometry" />
        </mxCell>
        <mxCell id="0kv2POSV4pIMgLlQA3oe-574" value="" style="shape=mxgraph.flowchart.process;fillColor=#f8cecc;strokeColor=#b85450;strokeWidth=2;opacity=80;" parent="0kv2POSV4pIMgLlQA3oe-412" vertex="1">
          <mxGeometry x="-260" y="700" width="420" height="20" as="geometry" />
        </mxCell>
        <mxCell id="63" value="" style="strokeColor=#DEEDFF;fillColor=#ADC3D9" parent="1" vertex="1">
          <mxGeometry x="630" y="330" width="40" height="20" as="geometry" />
        </mxCell>
        <mxCell id="64" value="Complete project execution" style="align=left;strokeColor=#DEEDFF;fillColor=#ADC3D9" parent="1" vertex="1">
          <mxGeometry x="670" y="330" width="320" height="20" as="geometry" />
        </mxCell>
        <mxCell id="65" value="70 days" style="strokeColor=#DEEDFF;fillColor=#ADC3D9" parent="1" vertex="1">
          <mxGeometry x="1070.0000000000018" y="330" width="80.00000000000028" height="20" as="geometry" />
        </mxCell>
        <mxCell id="66" value="28.09.20" style="strokeColor=#DEEDFF;fillColor=#ADC3D9" parent="1" vertex="1">
          <mxGeometry x="1150.000000000002" y="330" width="80.00000000000028" height="20" as="geometry" />
        </mxCell>
        <mxCell id="67" value="7.12.20" style="strokeColor=#DEEDFF;fillColor=#ADC3D9" parent="1" vertex="1">
          <mxGeometry x="1230.0000000000016" y="330.0000000000002" width="80.00000000000028" height="20" as="geometry" />
        </mxCell>
        <mxCell id="69" value="0" style="strokeColor=#DEEDFF;fillColor=#CCE5FF" parent="1" vertex="1">
          <mxGeometry x="630.0000000000002" y="349.9999999999999" width="40" height="20" as="geometry" />
        </mxCell>
        <mxCell id="70" value="Flowgate Environment" style="align=left;strokeColor=#DEEDFF;fillColor=#CCE5FF" parent="1" vertex="1">
          <mxGeometry x="670.0000000000002" y="349.9999999999999" width="319.9999999999998" height="20" as="geometry" />
        </mxCell>
        <mxCell id="71" value="70 days" style="strokeColor=#DEEDFF;fillColor=#CCE5FF" parent="1" vertex="1">
          <mxGeometry x="1070.000000000002" y="349.99999999999983" width="80.00000000000028" height="20" as="geometry" />
        </mxCell>
        <mxCell id="72" value="28.09.20" style="strokeColor=#DEEDFF;fillColor=#CCE5FF" parent="1" vertex="1">
          <mxGeometry x="1150.0000000000023" y="349.99999999999983" width="80.00000000000028" height="20" as="geometry" />
        </mxCell>
        <mxCell id="73" value="7.12.20" style="strokeColor=#DEEDFF;fillColor=#CCE5FF" parent="1" vertex="1">
          <mxGeometry x="1230.0000000000018" y="350.0000000000001" width="80.00000000000028" height="20" as="geometry" />
        </mxCell>
        <mxCell id="74" value="0.1" style="strokeColor=#DEEDFF" parent="1" vertex="1">
          <mxGeometry x="630.0000000000002" y="369.9999999999998" width="40" height="20" as="geometry" />
        </mxCell>
        <mxCell id="75" value="Install environment on server" style="align=left;strokeColor=#DEEDFF" parent="1" vertex="1">
          <mxGeometry x="670.0000000000002" y="369.9999999999998" width="319.9999999999997" height="20.000000000000014" as="geometry" />
        </mxCell>
        <mxCell id="76" value="9 days" style="strokeColor=#DEEDFF" parent="1" vertex="1">
          <mxGeometry x="1070.000000000002" y="369.9999999999997" width="80.00000000000028" height="20" as="geometry" />
        </mxCell>
        <mxCell id="77" value="28.09.20" style="strokeColor=#DEEDFF" parent="1" vertex="1">
          <mxGeometry x="1150.0000000000023" y="369.9999999999997" width="80.00000000000028" height="20" as="geometry" />
        </mxCell>
        <mxCell id="78" value="6.10.20" style="strokeColor=#DEEDFF" parent="1" vertex="1">
          <mxGeometry x="1230.0000000000018" y="370" width="80.00000000000028" height="20" as="geometry" />
        </mxCell>
        <mxCell id="79" value="0.2" style="strokeColor=#DEEDFF" parent="1" vertex="1">
          <mxGeometry x="630" y="390.00000000000017" width="40" height="20" as="geometry" />
        </mxCell>
        <mxCell id="80" value="Maintain Database" style="align=left;strokeColor=#DEEDFF" parent="1" vertex="1">
          <mxGeometry x="670" y="390.00000000000017" width="320" height="20" as="geometry" />
        </mxCell>
        <mxCell id="81" value="61 days" style="strokeColor=#DEEDFF" parent="1" vertex="1">
          <mxGeometry x="1070.0000000000018" y="390.0000000000001" width="80.00000000000028" height="20" as="geometry" />
        </mxCell>
        <mxCell id="82" value="6.10.20" style="strokeColor=#DEEDFF" parent="1" vertex="1">
          <mxGeometry x="1150.000000000002" y="390.0000000000001" width="80.00000000000028" height="20" as="geometry" />
        </mxCell>
        <mxCell id="83" value="7.12.20" style="strokeColor=#DEEDFF" parent="1" vertex="1">
          <mxGeometry x="1230.0000000000014" y="390.0000000000004" width="80.00000000000028" height="20" as="geometry" />
        </mxCell>
        <mxCell id="84" value="1.1" style="strokeColor=#9673a6;fillColor=#e1d5e7;" parent="1" vertex="1">
          <mxGeometry x="629.9999999999999" y="430.00000000000017" width="40" height="20" as="geometry" />
        </mxCell>
        <mxCell id="85" value="Milestone 1: Connect Flowgate with app " style="align=left;strokeColor=#9673a6;fillColor=#e1d5e7;" parent="1" vertex="1">
          <mxGeometry x="669.9999999999999" y="430.00000000000017" width="320.0000000000001" height="20" as="geometry" />
        </mxCell>
        <mxCell id="86" value="21 days" style="strokeColor=#9673a6;fillColor=#e1d5e7;" parent="1" vertex="1">
          <mxGeometry x="1070.0000000000016" y="430.0000000000001" width="80.00000000000028" height="20" as="geometry" />
        </mxCell>
        <mxCell id="87" value="6.10.20" style="strokeColor=#9673a6;fillColor=#e1d5e7;" parent="1" vertex="1">
          <mxGeometry x="1150.0000000000018" y="430.0000000000001" width="80.00000000000028" height="20" as="geometry" />
        </mxCell>
        <mxCell id="88" value="27.10.20" style="strokeColor=#9673a6;fillColor=#e1d5e7;" parent="1" vertex="1">
          <mxGeometry x="1230.0000000000014" y="430.0000000000004" width="80.00000000000028" height="20" as="geometry" />
        </mxCell>
        <mxCell id="89" value="1.1.1" style="strokeColor=#DEEDFF" parent="1" vertex="1">
          <mxGeometry x="629.9999999999999" y="450.00000000000045" width="40" height="20" as="geometry" />
        </mxCell>
        <mxCell id="90" value="Init and get token" style="align=left;strokeColor=#DEEDFF" parent="1" vertex="1">
          <mxGeometry x="669.9999999999999" y="450.00000000000045" width="320.0000000000001" height="20" as="geometry" />
        </mxCell>
        <mxCell id="91" value="14 days" style="strokeColor=#DEEDFF" parent="1" vertex="1">
          <mxGeometry x="1070.0000000000016" y="450.00000000000034" width="80.00000000000028" height="20" as="geometry" />
        </mxCell>
        <mxCell id="92" value="6.10.20" style="strokeColor=#DEEDFF" parent="1" vertex="1">
          <mxGeometry x="1150.0000000000018" y="450.00000000000034" width="80.00000000000028" height="20" as="geometry" />
        </mxCell>
        <mxCell id="93" value="20.10.20" style="strokeColor=#DEEDFF" parent="1" vertex="1">
          <mxGeometry x="1230.0000000000014" y="450.0000000000007" width="80.00000000000028" height="20" as="geometry" />
        </mxCell>
        <mxCell id="94" value="1.1.2" style="strokeColor=#DEEDFF" parent="1" vertex="1">
          <mxGeometry x="630.0000000000007" y="470.0000000000007" width="40" height="20" as="geometry" />
        </mxCell>
        <mxCell id="95" value="Post method" style="align=left;strokeColor=#DEEDFF" parent="1" vertex="1">
          <mxGeometry x="670.0000000000007" y="470.0000000000007" width="319.9999999999994" height="20" as="geometry" />
        </mxCell>
        <mxCell id="96" value="7 days" style="strokeColor=#DEEDFF" parent="1" vertex="1">
          <mxGeometry x="1070.0000000000023" y="470.0000000000007" width="80.00000000000028" height="20" as="geometry" />
        </mxCell>
        <mxCell id="97" value="20.10.20" style="strokeColor=#DEEDFF" parent="1" vertex="1">
          <mxGeometry x="1150.0000000000027" y="470.0000000000007" width="80.00000000000028" height="20" as="geometry" />
        </mxCell>
        <mxCell id="98" value="27.10.20" style="strokeColor=#DEEDFF" parent="1" vertex="1">
          <mxGeometry x="1230.0000000000023" y="470.0000000000009" width="80.00000000000028" height="20" as="geometry" />
        </mxCell>
        <mxCell id="99" value="1.1.3" style="strokeColor=#DEEDFF" parent="1" vertex="1">
          <mxGeometry x="630.0000000000007" y="490.00000000000057" width="40" height="20" as="geometry" />
        </mxCell>
        <mxCell id="100" value="Get method" style="align=left;strokeColor=#DEEDFF" parent="1" vertex="1">
          <mxGeometry x="670.0000000000007" y="490.00000000000057" width="319.9999999999994" height="20" as="geometry" />
        </mxCell>
        <mxCell id="101" value="7 days" style="strokeColor=#DEEDFF" parent="1" vertex="1">
          <mxGeometry x="1070.0000000000023" y="490.00000000000057" width="80.00000000000028" height="20" as="geometry" />
        </mxCell>
        <mxCell id="102" value="20.10.20" style="strokeColor=#DEEDFF" parent="1" vertex="1">
          <mxGeometry x="1150.0000000000027" y="490.00000000000057" width="80.00000000000028" height="20" as="geometry" />
        </mxCell>
        <mxCell id="103" value="27.10.20" style="strokeColor=#DEEDFF" parent="1" vertex="1">
          <mxGeometry x="1230.0000000000023" y="490.0000000000008" width="80.00000000000028" height="20" as="geometry" />
        </mxCell>
        <mxCell id="104" value="1.2" style="strokeColor=#9673a6;fillColor=#e1d5e7;" parent="1" vertex="1">
          <mxGeometry x="630.0000000000003" y="510.000000000001" width="40" height="20" as="geometry" />
        </mxCell>
        <mxCell id="105" value="Milestone 2: Baisc Integration of AR" style="align=left;strokeColor=#9673a6;fillColor=#e1d5e7;" parent="1" vertex="1">
          <mxGeometry x="670.0000000000003" y="510.000000000001" width="319.99999999999966" height="20.00000000000003" as="geometry" />
        </mxCell>
        <mxCell id="106" value="21 days" style="strokeColor=#9673a6;fillColor=#e1d5e7;" parent="1" vertex="1">
          <mxGeometry x="1070.000000000002" y="510.0000000000009" width="80.00000000000028" height="20" as="geometry" />
        </mxCell>
        <mxCell id="107" value="6.10.20" style="strokeColor=#9673a6;fillColor=#e1d5e7;" parent="1" vertex="1">
          <mxGeometry x="1150.0000000000025" y="510.0000000000009" width="80.00000000000028" height="20" as="geometry" />
        </mxCell>
        <mxCell id="108" value="2.11.20" style="strokeColor=#9673a6;fillColor=#e1d5e7;" parent="1" vertex="1">
          <mxGeometry x="1230.0000000000018" y="510.00000000000125" width="80.00000000000028" height="20" as="geometry" />
        </mxCell>
        <mxCell id="109" value="1.2.1" style="strokeColor=#DEEDFF" parent="1" vertex="1">
          <mxGeometry x="630.0000000000002" y="530.000000000001" width="40" height="20" as="geometry" />
        </mxCell>
        <mxCell id="110" value="Create an AR app on phone" style="align=left;strokeColor=#DEEDFF" parent="1" vertex="1">
          <mxGeometry x="670.0000000000002" y="530.000000000001" width="319.9999999999997" height="20" as="geometry" />
        </mxCell>
        <mxCell id="111" value="19 days" style="strokeColor=#DEEDFF" parent="1" vertex="1">
          <mxGeometry x="1070.000000000002" y="530.0000000000009" width="80.00000000000028" height="20" as="geometry" />
        </mxCell>
        <mxCell id="112" value="6.10.20" style="strokeColor=#DEEDFF" parent="1" vertex="1">
          <mxGeometry x="1150.0000000000023" y="530.0000000000009" width="80.00000000000028" height="20" as="geometry" />
        </mxCell>
        <mxCell id="113" value="25.10.20" style="strokeColor=#DEEDFF" parent="1" vertex="1">
          <mxGeometry x="1230.0000000000018" y="530.0000000000013" width="80.00000000000028" height="20" as="geometry" />
        </mxCell>
        <mxCell id="114" value="1.2.2" style="strokeColor=#DEEDFF" parent="1" vertex="1">
          <mxGeometry x="630.0000000000002" y="550.0000000000013" width="40" height="20" as="geometry" />
        </mxCell>
        <mxCell id="115" value="Scan bar scan" style="align=left;strokeColor=#DEEDFF" parent="1" vertex="1">
          <mxGeometry x="670.0000000000002" y="550.0000000000013" width="319.9999999999997" height="20" as="geometry" />
        </mxCell>
        <mxCell id="116" value="19 days" style="strokeColor=#DEEDFF" parent="1" vertex="1">
          <mxGeometry x="1070.000000000002" y="550.0000000000011" width="80.00000000000028" height="20" as="geometry" />
        </mxCell>
        <mxCell id="117" value="6.10.20" style="strokeColor=#DEEDFF" parent="1" vertex="1">
          <mxGeometry x="1150.0000000000023" y="550.0000000000011" width="80.00000000000028" height="20" as="geometry" />
        </mxCell>
        <mxCell id="118" value="25.10.20" style="strokeColor=#DEEDFF" parent="1" vertex="1">
          <mxGeometry x="1230.0000000000018" y="550.0000000000015" width="80.00000000000028" height="20" as="geometry" />
        </mxCell>
        <mxCell id="119" value="1.2.3" style="strokeColor=#DEEDFF" parent="1" vertex="1">
          <mxGeometry x="630" y="570.0000000000016" width="40" height="20" as="geometry" />
        </mxCell>
        <mxCell id="120" value="Integrate 1.2.1 and 1.2.2" style="align=left;strokeColor=#DEEDFF" parent="1" vertex="1">
          <mxGeometry x="670" y="570.0000000000016" width="320" height="20" as="geometry" />
        </mxCell>
        <mxCell id="121" value="11 days" style="strokeColor=#DEEDFF" parent="1" vertex="1">
          <mxGeometry x="1070.0000000000018" y="570.0000000000015" width="80.00000000000028" height="20" as="geometry" />
        </mxCell>
        <mxCell id="122" value="25.10.20" style="strokeColor=#DEEDFF" parent="1" vertex="1">
          <mxGeometry x="1150.000000000002" y="570.0000000000015" width="80.00000000000028" height="20" as="geometry" />
        </mxCell>
        <mxCell id="123" value="2.11.20" style="strokeColor=#DEEDFF" parent="1" vertex="1">
          <mxGeometry x="1230.0000000000014" y="570.0000000000018" width="80.00000000000028" height="20" as="geometry" />
        </mxCell>
        <mxCell id="124" value="1.3" style="strokeColor=#9673a6;fillColor=#e1d5e7;" parent="1" vertex="1">
          <mxGeometry x="630" y="590.0000000000014" width="40" height="20" as="geometry" />
        </mxCell>
        <mxCell id="125" value="Milestone 3: Finish a Prototype" style="align=left;strokeColor=#9673a6;fillColor=#e1d5e7;" parent="1" vertex="1">
          <mxGeometry x="670" y="590.0000000000014" width="320" height="20" as="geometry" />
        </mxCell>
        <mxCell id="126" value="14 days" style="strokeColor=#9673a6;fillColor=#e1d5e7;" parent="1" vertex="1">
          <mxGeometry x="1070.0000000000018" y="590.0000000000014" width="80.00000000000028" height="20" as="geometry" />
        </mxCell>
        <mxCell id="127" value="2.11.20" style="strokeColor=#9673a6;fillColor=#e1d5e7;" parent="1" vertex="1">
          <mxGeometry x="1150.000000000002" y="590.0000000000014" width="80.00000000000028" height="20" as="geometry" />
        </mxCell>
        <mxCell id="128" value="16.11.20" style="strokeColor=#9673a6;fillColor=#e1d5e7;" parent="1" vertex="1">
          <mxGeometry x="1230.0000000000014" y="590.0000000000016" width="80.00000000000028" height="20" as="geometry" />
        </mxCell>
        <mxCell id="129" value="1.3.1" style="strokeColor=#DEEDFF" parent="1" vertex="1">
          <mxGeometry x="629.9999999999998" y="610.0000000000018" width="40" height="20" as="geometry" />
        </mxCell>
        <mxCell id="130" value="Transfer the bar code position to AR world position" style="align=left;strokeColor=#DEEDFF" parent="1" vertex="1">
          <mxGeometry x="669.9999999999998" y="610.0000000000018" width="320.0000000000003" height="20" as="geometry" />
        </mxCell>
        <mxCell id="131" value="7 days" style="strokeColor=#DEEDFF" parent="1" vertex="1">
          <mxGeometry x="1070.0000000000014" y="610.0000000000018" width="80.00000000000028" height="20" as="geometry" />
        </mxCell>
        <mxCell id="132" value="2.11.20" style="strokeColor=#DEEDFF" parent="1" vertex="1">
          <mxGeometry x="1150.0000000000018" y="610.0000000000018" width="80.00000000000028" height="20" as="geometry" />
        </mxCell>
        <mxCell id="133" value="9.11.20" style="strokeColor=#DEEDFF" parent="1" vertex="1">
          <mxGeometry x="1230.0000000000011" y="610.000000000002" width="80.00000000000028" height="20" as="geometry" />
        </mxCell>
        <mxCell id="134" value="1.3.2" style="strokeColor=#DEEDFF;fillColor=#FFFFFF" parent="1" vertex="1">
          <mxGeometry x="629.9999999999997" y="630.0000000000018" width="40" height="20" as="geometry" />
        </mxCell>
        <mxCell id="135" value="Place some information on the bar code position" style="align=left;strokeColor=#DEEDFF;fillColor=#FFFFFF" parent="1" vertex="1">
          <mxGeometry x="669.9999999999997" y="630.0000000000018" width="320.00000000000034" height="20" as="geometry" />
        </mxCell>
        <mxCell id="136" value="7 days" style="strokeColor=#DEEDFF;fillColor=#FFFFFF" parent="1" vertex="1">
          <mxGeometry x="1070.0000000000014" y="630.0000000000018" width="80.00000000000028" height="20" as="geometry" />
        </mxCell>
        <mxCell id="137" value="9.11.20" style="strokeColor=#DEEDFF;fillColor=#FFFFFF" parent="1" vertex="1">
          <mxGeometry x="1150.0000000000016" y="630.0000000000018" width="80.00000000000028" height="20" as="geometry" />
        </mxCell>
        <mxCell id="138" value="16.11.20" style="strokeColor=#DEEDFF;fillColor=#FFFFFF" parent="1" vertex="1">
          <mxGeometry x="1230" y="630" width="80" height="20" as="geometry" />
        </mxCell>
        <mxCell id="139" value="1.4" style="strokeColor=#9673a6;fillColor=#e1d5e7;" parent="1" vertex="1">
          <mxGeometry x="629.9999999999997" y="650.000000000002" width="40" height="20" as="geometry" />
        </mxCell>
        <mxCell id="140" value="Milestone 4: Good UX" style="align=left;strokeColor=#9673a6;fillColor=#e1d5e7;" parent="1" vertex="1">
          <mxGeometry x="669.9999999999997" y="650.000000000002" width="320.0000000000004" height="20" as="geometry" />
        </mxCell>
        <mxCell id="141" value="21 days" style="strokeColor=#9673a6;fillColor=#e1d5e7;" parent="1" vertex="1">
          <mxGeometry x="1070.0000000000014" y="650.000000000002" width="80.00000000000028" height="20" as="geometry" />
        </mxCell>
        <mxCell id="142" value="17.11.20" style="strokeColor=#9673a6;fillColor=#e1d5e7;" parent="1" vertex="1">
          <mxGeometry x="1150.0000000000016" y="650.000000000002" width="80.00000000000028" height="20" as="geometry" />
        </mxCell>
        <mxCell id="143" value="7.12.20" style="strokeColor=#9673a6;fillColor=#e1d5e7;" parent="1" vertex="1">
          <mxGeometry x="1230.0000000000011" y="650.0000000000023" width="80.00000000000028" height="20" as="geometry" />
        </mxCell>
        <mxCell id="144" value="1.4.1" style="strokeColor=#DEEDFF" parent="1" vertex="1">
          <mxGeometry x="630.000000000001" y="670.0000000000023" width="40" height="20" as="geometry" />
        </mxCell>
        <mxCell id="145" value="Change workflow" style="align=left;strokeColor=#DEEDFF" parent="1" vertex="1">
          <mxGeometry x="670.000000000001" y="670.0000000000023" width="319.999999999999" height="20" as="geometry" />
        </mxCell>
        <mxCell id="146" value="14 days" style="strokeColor=#DEEDFF" parent="1" vertex="1">
          <mxGeometry x="1070.0000000000027" y="670.0000000000023" width="80.00000000000028" height="20" as="geometry" />
        </mxCell>
        <mxCell id="147" value="17.11.20" style="strokeColor=#DEEDFF" parent="1" vertex="1">
          <mxGeometry x="1150.000000000003" y="670.0000000000023" width="80.00000000000028" height="20" as="geometry" />
        </mxCell>
        <mxCell id="148" value="30.11.20" style="strokeColor=#DEEDFF" parent="1" vertex="1">
          <mxGeometry x="1230.0000000000025" y="670.0000000000025" width="80.00000000000028" height="20" as="geometry" />
        </mxCell>
        <mxCell id="149" value="1.4.2" style="strokeColor=#DEEDFF" parent="1" vertex="1">
          <mxGeometry x="630.000000000001" y="690.0000000000022" width="40" height="20" as="geometry" />
        </mxCell>
        <mxCell id="150" value="Improve userinterface" style="align=left;strokeColor=#DEEDFF" parent="1" vertex="1">
          <mxGeometry x="670.000000000001" y="690.0000000000022" width="319.999999999999" height="20" as="geometry" />
        </mxCell>
        <mxCell id="151" value="21 days" style="strokeColor=#DEEDFF" parent="1" vertex="1">
          <mxGeometry x="1070.0000000000027" y="690.000000000002" width="80.00000000000028" height="20" as="geometry" />
        </mxCell>
        <mxCell id="152" value="17.11.20" style="strokeColor=#DEEDFF" parent="1" vertex="1">
          <mxGeometry x="1150.000000000003" y="690.000000000002" width="80.00000000000028" height="20" as="geometry" />
        </mxCell>
        <mxCell id="153" value="7.12.20" style="strokeColor=#DEEDFF" parent="1" vertex="1">
          <mxGeometry x="1230.0000000000025" y="690.0000000000024" width="80.00000000000028" height="20" as="geometry" />
        </mxCell>
        <mxCell id="154" value="1.5" style="strokeColor=#9673a6;fillColor=#e1d5e7;" parent="1" vertex="1">
          <mxGeometry x="630.0000000000007" y="710.0000000000025" width="40" height="20" as="geometry" />
        </mxCell>
        <mxCell id="155" value="Improve algorithm" style="align=left;strokeColor=#9673a6;fillColor=#e1d5e7;" parent="1" vertex="1">
          <mxGeometry x="670.0000000000007" y="710.0000000000025" width="319.99999999999926" height="20" as="geometry" />
        </mxCell>
        <mxCell id="156" value="21 days" style="strokeColor=#9673a6;fillColor=#e1d5e7;" parent="1" vertex="1">
          <mxGeometry x="1070.0000000000025" y="710.0000000000025" width="80.00000000000028" height="20" as="geometry" />
        </mxCell>
        <mxCell id="157" value="17.11.20" style="strokeColor=#9673a6;fillColor=#e1d5e7;" parent="1" vertex="1">
          <mxGeometry x="1150" y="710" width="80" height="20" as="geometry" />
        </mxCell>
        <mxCell id="158" value="7.12.20" style="strokeColor=#9673a6;fillColor=#e1d5e7;" parent="1" vertex="1">
          <mxGeometry x="1230.0000000000023" y="710.0000000000027" width="80.00000000000028" height="20" as="geometry" />
        </mxCell>
        <mxCell id="159" value="1.5.1" style="strokeColor=#DEEDFF" parent="1" vertex="1">
          <mxGeometry x="630.0000000000007" y="730.0000000000025" width="40" height="20" as="geometry" />
        </mxCell>
        <mxCell id="160" value="Freeze scene" style="align=left;strokeColor=#DEEDFF" parent="1" vertex="1">
          <mxGeometry x="670.0000000000007" y="730.0000000000025" width="319.9999999999993" height="20" as="geometry" />
        </mxCell>
        <mxCell id="161" value="14 days" style="strokeColor=#DEEDFF" parent="1" vertex="1">
          <mxGeometry x="1070.0000000000023" y="730.0000000000025" width="80.00000000000028" height="20" as="geometry" />
        </mxCell>
        <mxCell id="162" value="17.11.20" style="strokeColor=#DEEDFF" parent="1" vertex="1">
          <mxGeometry x="1150.0000000000027" y="730.0000000000025" width="80.00000000000028" height="20" as="geometry" />
        </mxCell>
        <mxCell id="163" value="30.11.20" style="strokeColor=#DEEDFF" parent="1" vertex="1">
          <mxGeometry x="1230.0000000000023" y="730.0000000000027" width="80.00000000000028" height="20" as="geometry" />
        </mxCell>
        <mxCell id="164" value="1.5.2" style="strokeColor=#DEEDFF" parent="1" vertex="1">
          <mxGeometry x="630.0000000000007" y="750.0000000000028" width="40" height="20" as="geometry" />
        </mxCell>
        <mxCell id="165" value="Rack recognization" style="align=left;strokeColor=#DEEDFF" parent="1" vertex="1">
          <mxGeometry x="670.0000000000007" y="750.0000000000028" width="319.9999999999993" height="20" as="geometry" />
        </mxCell>
        <mxCell id="166" value="21 days" style="strokeColor=#DEEDFF" parent="1" vertex="1">
          <mxGeometry x="1070.0000000000023" y="750.0000000000027" width="80.00000000000028" height="20" as="geometry" />
        </mxCell>
        <mxCell id="167" value="17.11.20" style="strokeColor=#DEEDFF" parent="1" vertex="1">
          <mxGeometry x="1150.0000000000027" y="750.0000000000027" width="80.00000000000028" height="20" as="geometry" />
        </mxCell>
        <mxCell id="168" value="7.12.20" style="strokeColor=#DEEDFF" parent="1" vertex="1">
          <mxGeometry x="1230.0000000000023" y="750.0000000000031" width="80.00000000000028" height="20" as="geometry" />
        </mxCell>
        <mxCell id="169" value="1.5.3" style="strokeColor=#DEEDFF" parent="1" vertex="1">
          <mxGeometry x="630.0000000000014" y="770.0000000000031" width="40" height="20" as="geometry" />
        </mxCell>
        <mxCell id="170" value="Pause session" style="align=left;strokeColor=#DEEDFF" parent="1" vertex="1">
          <mxGeometry x="670.0000000000014" y="770.0000000000031" width="319.99999999999864" height="20" as="geometry" />
        </mxCell>
        <mxCell id="171" value="21 days" style="strokeColor=#DEEDFF" parent="1" vertex="1">
          <mxGeometry x="1070.0000000000032" y="770.000000000003" width="80.00000000000028" height="20" as="geometry" />
        </mxCell>
        <mxCell id="172" value="17.11.20" style="strokeColor=#DEEDFF" parent="1" vertex="1">
          <mxGeometry x="1150.0000000000034" y="770.000000000003" width="80.00000000000028" height="20" as="geometry" />
        </mxCell>
        <mxCell id="173" value="7.12.20" style="strokeColor=#DEEDFF" parent="1" vertex="1">
          <mxGeometry x="1230.000000000003" y="770.0000000000033" width="80.00000000000028" height="20" as="geometry" />
        </mxCell>
        <mxCell id="2" value="Task Name" style="fillColor=#23445D;strokeColor=#FFFFFF;strokeWidth=2;fontColor=#FFFFFF;fontStyle=1" parent="1" vertex="1">
          <mxGeometry x="670" y="290" width="320" height="40" as="geometry" />
        </mxCell>
        <mxCell id="3" value="" style="fillColor=#23445D;strokeColor=#FFFFFF;strokeWidth=2;fontColor=#FFFFFF;fontStyle=1" parent="1" vertex="1">
          <mxGeometry x="630" y="290" width="40" height="40" as="geometry" />
        </mxCell>
        <mxCell id="4" value="28 Sep 20" style="fillColor=#23445D;strokeColor=#FFFFFF;strokeWidth=2;fontColor=#FFFFFF;fontStyle=1" parent="1" vertex="1">
          <mxGeometry x="1310.0000000000018" y="290.0000000000001" width="140" height="20" as="geometry" />
        </mxCell>
        <mxCell id="5" value="M" style="fillColor=#23445D;strokeColor=#FFFFFF;strokeWidth=2;fontColor=#FFFFFF;fontStyle=1" parent="1" vertex="1">
          <mxGeometry x="1310.0000000000018" y="310.0000000000001" width="20" height="20" as="geometry" />
        </mxCell>
        <mxCell id="6" value="T" style="fillColor=#23445D;strokeColor=#FFFFFF;strokeWidth=2;fontColor=#FFFFFF;fontStyle=1" parent="1" vertex="1">
          <mxGeometry x="1330.0000000000018" y="310.0000000000001" width="20" height="20" as="geometry" />
        </mxCell>
        <mxCell id="7" value="W" style="fillColor=#23445D;strokeColor=#FFFFFF;strokeWidth=2;fontColor=#FFFFFF;fontStyle=1" parent="1" vertex="1">
          <mxGeometry x="1350.0000000000018" y="310.0000000000001" width="20" height="20" as="geometry" />
        </mxCell>
        <mxCell id="8" value="T" style="fillColor=#23445D;strokeColor=#FFFFFF;strokeWidth=2;fontColor=#FFFFFF;fontStyle=1" parent="1" vertex="1">
          <mxGeometry x="1370.0000000000018" y="310.0000000000001" width="20" height="20" as="geometry" />
        </mxCell>
        <mxCell id="9" value="F" style="fillColor=#23445D;strokeColor=#FFFFFF;strokeWidth=2;fontColor=#FFFFFF;fontStyle=1" parent="1" vertex="1">
          <mxGeometry x="1390.0000000000016" y="310.0000000000001" width="20" height="20" as="geometry" />
        </mxCell>
        <mxCell id="10" value="S" style="fillColor=#23445D;strokeColor=#FFFFFF;strokeWidth=2;fontColor=#FFFFFF;fontStyle=1" parent="1" vertex="1">
          <mxGeometry x="1410.0000000000016" y="310.0000000000001" width="20" height="20" as="geometry" />
        </mxCell>
        <mxCell id="11" value="S" style="fillColor=#23445D;strokeColor=#FFFFFF;strokeWidth=2;fontColor=#FFFFFF;fontStyle=1" parent="1" vertex="1">
          <mxGeometry x="1430.0000000000016" y="310.0000000000001" width="20" height="20" as="geometry" />
        </mxCell>
        <mxCell id="12" value="Duration" style="fillColor=#23445D;strokeColor=#FFFFFF;strokeWidth=2;fontColor=#FFFFFF;fontStyle=1" parent="1" vertex="1">
          <mxGeometry x="1070.0000000000018" y="290.00000000000006" width="80.00000000000006" height="40.00000000000001" as="geometry" />
        </mxCell>
        <mxCell id="13" value="Start" style="fillColor=#23445D;strokeColor=#FFFFFF;strokeWidth=2;fontColor=#FFFFFF;fontStyle=1" parent="1" vertex="1">
          <mxGeometry x="1150.0000000000018" y="290.00000000000006" width="80.00000000000006" height="40.00000000000001" as="geometry" />
        </mxCell>
        <mxCell id="14" value="ETA" style="fillColor=#23445D;strokeColor=#FFFFFF;strokeWidth=2;fontColor=#FFFFFF;fontStyle=1" parent="1" vertex="1">
          <mxGeometry x="1230.0000000000018" y="290.0000000000001" width="80.00000000000006" height="40.00000000000001" as="geometry" />
        </mxCell>
        <mxCell id="15" value="5 Oct 20" style="fillColor=#23445D;strokeColor=#FFFFFF;strokeWidth=2;fontColor=#FFFFFF;fontStyle=1" parent="1" vertex="1">
          <mxGeometry x="1450.0000000000018" y="290.0000000000001" width="140" height="20" as="geometry" />
        </mxCell>
        <mxCell id="16" value="M" style="fillColor=#23445D;strokeColor=#FFFFFF;strokeWidth=2;fontColor=#FFFFFF;fontStyle=1" parent="1" vertex="1">
          <mxGeometry x="1450.0000000000018" y="310.0000000000001" width="20" height="20" as="geometry" />
        </mxCell>
        <mxCell id="17" value="T" style="fillColor=#23445D;strokeColor=#FFFFFF;strokeWidth=2;fontColor=#FFFFFF;fontStyle=1" parent="1" vertex="1">
          <mxGeometry x="1470.0000000000018" y="310.0000000000001" width="20" height="20" as="geometry" />
        </mxCell>
        <mxCell id="18" value="W" style="fillColor=#23445D;strokeColor=#FFFFFF;strokeWidth=2;fontColor=#FFFFFF;fontStyle=1" parent="1" vertex="1">
          <mxGeometry x="1490.0000000000018" y="310.0000000000001" width="20" height="20" as="geometry" />
        </mxCell>
        <mxCell id="19" value="T" style="fillColor=#23445D;strokeColor=#FFFFFF;strokeWidth=2;fontColor=#FFFFFF;fontStyle=1" parent="1" vertex="1">
          <mxGeometry x="1510.0000000000018" y="310.0000000000001" width="20" height="20" as="geometry" />
        </mxCell>
        <mxCell id="20" value="F" style="fillColor=#23445D;strokeColor=#FFFFFF;strokeWidth=2;fontColor=#FFFFFF;fontStyle=1" parent="1" vertex="1">
          <mxGeometry x="1530.0000000000016" y="310.0000000000001" width="20" height="20" as="geometry" />
        </mxCell>
        <mxCell id="21" value="S" style="fillColor=#23445D;strokeColor=#FFFFFF;strokeWidth=2;fontColor=#FFFFFF;fontStyle=1" parent="1" vertex="1">
          <mxGeometry x="1550.0000000000016" y="310.0000000000001" width="20" height="20" as="geometry" />
        </mxCell>
        <mxCell id="22" value="S" style="fillColor=#23445D;strokeColor=#FFFFFF;strokeWidth=2;fontColor=#FFFFFF;fontStyle=1" parent="1" vertex="1">
          <mxGeometry x="1570.0000000000016" y="310.0000000000001" width="20" height="20" as="geometry" />
        </mxCell>
        <mxCell id="23" value="12 Oct 20" style="fillColor=#23445D;strokeColor=#FFFFFF;strokeWidth=2;fontColor=#FFFFFF;fontStyle=1" parent="1" vertex="1">
          <mxGeometry x="1590.0000000000018" y="290.00000000000006" width="140" height="20" as="geometry" />
        </mxCell>
        <mxCell id="24" value="M" style="fillColor=#23445D;strokeColor=#FFFFFF;strokeWidth=2;fontColor=#FFFFFF;fontStyle=1" parent="1" vertex="1">
          <mxGeometry x="1590.0000000000018" y="310.00000000000006" width="20" height="20" as="geometry" />
        </mxCell>
        <mxCell id="25" value="T" style="fillColor=#23445D;strokeColor=#FFFFFF;strokeWidth=2;fontColor=#FFFFFF;fontStyle=1" parent="1" vertex="1">
          <mxGeometry x="1610.0000000000018" y="310.00000000000006" width="20" height="20" as="geometry" />
        </mxCell>
        <mxCell id="26" value="W" style="fillColor=#23445D;strokeColor=#FFFFFF;strokeWidth=2;fontColor=#FFFFFF;fontStyle=1" parent="1" vertex="1">
          <mxGeometry x="1630.0000000000018" y="310.00000000000006" width="20" height="20" as="geometry" />
        </mxCell>
        <mxCell id="27" value="T" style="fillColor=#23445D;strokeColor=#FFFFFF;strokeWidth=2;fontColor=#FFFFFF;fontStyle=1" parent="1" vertex="1">
          <mxGeometry x="1650.0000000000018" y="310.00000000000006" width="20" height="20" as="geometry" />
        </mxCell>
        <mxCell id="28" value="F" style="fillColor=#23445D;strokeColor=#FFFFFF;strokeWidth=2;fontColor=#FFFFFF;fontStyle=1" parent="1" vertex="1">
          <mxGeometry x="1670.0000000000016" y="310.00000000000006" width="20" height="20" as="geometry" />
        </mxCell>
        <mxCell id="29" value="S" style="fillColor=#23445D;strokeColor=#FFFFFF;strokeWidth=2;fontColor=#FFFFFF;fontStyle=1" parent="1" vertex="1">
          <mxGeometry x="1690.0000000000016" y="310.00000000000006" width="20" height="20" as="geometry" />
        </mxCell>
        <mxCell id="30" value="S" style="fillColor=#23445D;strokeColor=#FFFFFF;strokeWidth=2;fontColor=#FFFFFF;fontStyle=1" parent="1" vertex="1">
          <mxGeometry x="1710.0000000000016" y="310.00000000000006" width="20" height="20" as="geometry" />
        </mxCell>
        <mxCell id="31" value="19 Oct 20" style="fillColor=#23445D;strokeColor=#FFFFFF;strokeWidth=2;fontColor=#FFFFFF;fontStyle=1" parent="1" vertex="1">
          <mxGeometry x="1730.0000000000018" y="290.00000000000006" width="140" height="20" as="geometry" />
        </mxCell>
        <mxCell id="32" value="M" style="fillColor=#23445D;strokeColor=#FFFFFF;strokeWidth=2;fontColor=#FFFFFF;fontStyle=1" parent="1" vertex="1">
          <mxGeometry x="1730.0000000000018" y="310.00000000000006" width="20" height="20" as="geometry" />
        </mxCell>
        <mxCell id="33" value="T" style="fillColor=#23445D;strokeColor=#FFFFFF;strokeWidth=2;fontColor=#FFFFFF;fontStyle=1" parent="1" vertex="1">
          <mxGeometry x="1750.0000000000018" y="310.00000000000006" width="20" height="20" as="geometry" />
        </mxCell>
        <mxCell id="34" value="W" style="fillColor=#23445D;strokeColor=#FFFFFF;strokeWidth=2;fontColor=#FFFFFF;fontStyle=1" parent="1" vertex="1">
          <mxGeometry x="1770.0000000000018" y="310.00000000000006" width="20" height="20" as="geometry" />
        </mxCell>
        <mxCell id="35" value="T" style="fillColor=#23445D;strokeColor=#FFFFFF;strokeWidth=2;fontColor=#FFFFFF;fontStyle=1" parent="1" vertex="1">
          <mxGeometry x="1790.0000000000018" y="310.00000000000006" width="20" height="20" as="geometry" />
        </mxCell>
        <mxCell id="36" value="F" style="fillColor=#23445D;strokeColor=#FFFFFF;strokeWidth=2;fontColor=#FFFFFF;fontStyle=1" parent="1" vertex="1">
          <mxGeometry x="1810.0000000000016" y="310" width="20" height="20" as="geometry" />
        </mxCell>
        <mxCell id="37" value="S" style="fillColor=#23445D;strokeColor=#FFFFFF;strokeWidth=2;fontColor=#FFFFFF;fontStyle=1" parent="1" vertex="1">
          <mxGeometry x="1830.0000000000016" y="310" width="20" height="20" as="geometry" />
        </mxCell>
        <mxCell id="38" value="S" style="fillColor=#23445D;strokeColor=#FFFFFF;strokeWidth=2;fontColor=#FFFFFF;fontStyle=1" parent="1" vertex="1">
          <mxGeometry x="1850.0000000000016" y="310" width="20" height="20" as="geometry" />
        </mxCell>
        <mxCell id="39" value="26 Oct 20" style="fillColor=#23445D;strokeColor=#FFFFFF;strokeWidth=2;fontColor=#FFFFFF;fontStyle=1" parent="1" vertex="1">
          <mxGeometry x="1870.0000000000018" y="290.00000000000006" width="140" height="20" as="geometry" />
        </mxCell>
        <mxCell id="40" value="M" style="fillColor=#23445D;strokeColor=#FFFFFF;strokeWidth=2;fontColor=#FFFFFF;fontStyle=1" parent="1" vertex="1">
          <mxGeometry x="1870.0000000000018" y="310.00000000000006" width="20" height="20" as="geometry" />
        </mxCell>
        <mxCell id="41" value="T" style="fillColor=#23445D;strokeColor=#FFFFFF;strokeWidth=2;fontColor=#FFFFFF;fontStyle=1" parent="1" vertex="1">
          <mxGeometry x="1890.0000000000018" y="310.00000000000006" width="20" height="20" as="geometry" />
        </mxCell>
        <mxCell id="42" value="W" style="fillColor=#23445D;strokeColor=#FFFFFF;strokeWidth=2;fontColor=#FFFFFF;fontStyle=1" parent="1" vertex="1">
          <mxGeometry x="1910.0000000000018" y="310.00000000000006" width="20" height="20" as="geometry" />
        </mxCell>
        <mxCell id="43" value="T" style="fillColor=#23445D;strokeColor=#FFFFFF;strokeWidth=2;fontColor=#FFFFFF;fontStyle=1" parent="1" vertex="1">
          <mxGeometry x="1930.0000000000018" y="310.00000000000006" width="20" height="20" as="geometry" />
        </mxCell>
        <mxCell id="44" value="F" style="fillColor=#23445D;strokeColor=#FFFFFF;strokeWidth=2;fontColor=#FFFFFF;fontStyle=1" parent="1" vertex="1">
          <mxGeometry x="1950.0000000000016" y="310" width="20" height="20" as="geometry" />
        </mxCell>
        <mxCell id="45" value="S" style="fillColor=#23445D;strokeColor=#FFFFFF;strokeWidth=2;fontColor=#FFFFFF;fontStyle=1" parent="1" vertex="1">
          <mxGeometry x="1970.0000000000016" y="310" width="20" height="20" as="geometry" />
        </mxCell>
        <mxCell id="46" value="S" style="fillColor=#23445D;strokeColor=#FFFFFF;strokeWidth=2;fontColor=#FFFFFF;fontStyle=1" parent="1" vertex="1">
          <mxGeometry x="1990.0000000000016" y="310" width="20" height="20" as="geometry" />
        </mxCell>
        <mxCell id="47" value="2 Nov 20" style="fillColor=#23445D;strokeColor=#FFFFFF;strokeWidth=2;fontColor=#FFFFFF;fontStyle=1" parent="1" vertex="1">
          <mxGeometry x="2010.0000000000018" y="290" width="140" height="20" as="geometry" />
        </mxCell>
        <mxCell id="48" value="M" style="fillColor=#23445D;strokeColor=#FFFFFF;strokeWidth=2;fontColor=#FFFFFF;fontStyle=1" parent="1" vertex="1">
          <mxGeometry x="2010.0000000000018" y="310" width="20" height="20" as="geometry" />
        </mxCell>
        <mxCell id="49" value="T" style="fillColor=#23445D;strokeColor=#FFFFFF;strokeWidth=2;fontColor=#FFFFFF;fontStyle=1" parent="1" vertex="1">
          <mxGeometry x="2030.0000000000018" y="310" width="20" height="20" as="geometry" />
        </mxCell>
        <mxCell id="50" value="W" style="fillColor=#23445D;strokeColor=#FFFFFF;strokeWidth=2;fontColor=#FFFFFF;fontStyle=1" parent="1" vertex="1">
          <mxGeometry x="2050.000000000002" y="310" width="20" height="20" as="geometry" />
        </mxCell>
        <mxCell id="51" value="T" style="fillColor=#23445D;strokeColor=#FFFFFF;strokeWidth=2;fontColor=#FFFFFF;fontStyle=1" parent="1" vertex="1">
          <mxGeometry x="2070.000000000002" y="310" width="20" height="20" as="geometry" />
        </mxCell>
        <mxCell id="52" value="F" style="fillColor=#23445D;strokeColor=#FFFFFF;strokeWidth=2;fontColor=#FFFFFF;fontStyle=1" parent="1" vertex="1">
          <mxGeometry x="2090.000000000002" y="310" width="20" height="20" as="geometry" />
        </mxCell>
        <mxCell id="53" value="S" style="fillColor=#23445D;strokeColor=#FFFFFF;strokeWidth=2;fontColor=#FFFFFF;fontStyle=1" parent="1" vertex="1">
          <mxGeometry x="2110.000000000002" y="310" width="20" height="20" as="geometry" />
        </mxCell>
        <mxCell id="54" value="S" style="fillColor=#23445D;strokeColor=#FFFFFF;strokeWidth=2;fontColor=#FFFFFF;fontStyle=1" parent="1" vertex="1">
          <mxGeometry x="2130.000000000002" y="310" width="20" height="20" as="geometry" />
        </mxCell>
        <mxCell id="55" value="9 Nov 20" style="fillColor=#23445D;strokeColor=#FFFFFF;strokeWidth=2;fontColor=#FFFFFF;fontStyle=1" parent="1" vertex="1">
          <mxGeometry x="2150.000000000002" y="290.0000000000001" width="140" height="20" as="geometry" />
        </mxCell>
        <mxCell id="56" value="M" style="fillColor=#23445D;strokeColor=#FFFFFF;strokeWidth=2;fontColor=#FFFFFF;fontStyle=1" parent="1" vertex="1">
          <mxGeometry x="2150.000000000002" y="310.0000000000001" width="20" height="20" as="geometry" />
        </mxCell>
        <mxCell id="57" value="T" style="fillColor=#23445D;strokeColor=#FFFFFF;strokeWidth=2;fontColor=#FFFFFF;fontStyle=1" parent="1" vertex="1">
          <mxGeometry x="2170.000000000002" y="310.0000000000001" width="20" height="20" as="geometry" />
        </mxCell>
        <mxCell id="58" value="W" style="fillColor=#23445D;strokeColor=#FFFFFF;strokeWidth=2;fontColor=#FFFFFF;fontStyle=1" parent="1" vertex="1">
          <mxGeometry x="2190.000000000002" y="310.0000000000001" width="20" height="20" as="geometry" />
        </mxCell>
        <mxCell id="59" value="T" style="fillColor=#23445D;strokeColor=#FFFFFF;strokeWidth=2;fontColor=#FFFFFF;fontStyle=1" parent="1" vertex="1">
          <mxGeometry x="2210.000000000002" y="310.0000000000001" width="20" height="20" as="geometry" />
        </mxCell>
        <mxCell id="60" value="F" style="fillColor=#23445D;strokeColor=#FFFFFF;strokeWidth=2;fontColor=#FFFFFF;fontStyle=1" parent="1" vertex="1">
          <mxGeometry x="2230.000000000002" y="310.0000000000001" width="20" height="20" as="geometry" />
        </mxCell>
        <mxCell id="61" value="S" style="fillColor=#23445D;strokeColor=#FFFFFF;strokeWidth=2;fontColor=#FFFFFF;fontStyle=1" parent="1" vertex="1">
          <mxGeometry x="2250.000000000002" y="310.0000000000001" width="20" height="20" as="geometry" />
        </mxCell>
        <mxCell id="62" value="S" style="fillColor=#23445D;strokeColor=#FFFFFF;strokeWidth=2;fontColor=#FFFFFF;fontStyle=1" parent="1" vertex="1">
          <mxGeometry x="2270.000000000002" y="310.0000000000001" width="20" height="20" as="geometry" />
        </mxCell>
        <mxCell id="243" value="" style="shape=mxgraph.arrows.bent_right_arrow;fillColor=#AE4132;strokeColor=none;strokeWidth=2;direction=south" parent="1" vertex="1">
          <mxGeometry x="1490.000000000002" y="379.99999999999966" width="10.000000000000341" height="9.99999999999983" as="geometry" />
        </mxCell>
        <mxCell id="244" value="Xie JL" style="shape=mxgraph.flowchart.process;fillColor=#AE4132;strokeColor=none;strokeWidth=2;opacity=50" parent="1" vertex="1">
          <mxGeometry x="1310" y="370" width="180" height="20" as="geometry" />
        </mxCell>
        <mxCell id="247" value="Chen YX" style="shape=mxgraph.flowchart.process;fillColor=#AE4132;strokeColor=none;strokeWidth=2;opacity=50" parent="1" vertex="1">
          <mxGeometry x="1490" y="450" width="280" height="20" as="geometry" />
        </mxCell>
        <mxCell id="252" value="Chen YX &amp; Xie JL" style="shape=mxgraph.flowchart.process;fillColor=#f8cecc;strokeColor=#b85450;strokeWidth=2;opacity=80;" parent="1" vertex="1">
          <mxGeometry x="1490" y="430" width="420" height="20" as="geometry" />
        </mxCell>
        <mxCell id="257" value="Tao CY" style="shape=mxgraph.flowchart.process;fillColor=#AE4132;strokeColor=none;strokeWidth=2;opacity=50" parent="1" vertex="1">
          <mxGeometry x="1490" y="530" width="380" height="20" as="geometry" />
        </mxCell>
        <mxCell id="258" value="Han LY" style="shape=mxgraph.flowchart.process;fillColor=#AE4132;strokeWidth=2;opacity=50;strokeColor=#F2F2F2;" parent="1" vertex="1">
          <mxGeometry x="1490" y="550" width="380" height="20" as="geometry" />
        </mxCell>
        <mxCell id="259" value="Tao CY" style="shape=mxgraph.flowchart.process;fillColor=#AE4132;strokeColor=none;strokeWidth=2;opacity=50" parent="1" vertex="1">
          <mxGeometry x="1870" y="570" width="160" height="20" as="geometry" />
        </mxCell>
        <mxCell id="261" value="Han LY" style="shape=mxgraph.flowchart.process;fillColor=#AE4132;strokeColor=none;strokeWidth=2;opacity=50" parent="1" vertex="1">
          <mxGeometry x="2030" y="610" width="120" height="20" as="geometry" />
        </mxCell>
        <mxCell id="0kv2POSV4pIMgLlQA3oe-285" value="16 Nov 20" style="fillColor=#23445D;strokeColor=#FFFFFF;strokeWidth=2;fontColor=#FFFFFF;fontStyle=1" parent="1" vertex="1">
          <mxGeometry x="2290.000000000002" y="290.0000000000001" width="140" height="20" as="geometry" />
        </mxCell>
        <mxCell id="0kv2POSV4pIMgLlQA3oe-286" value="M" style="fillColor=#23445D;strokeColor=#FFFFFF;strokeWidth=2;fontColor=#FFFFFF;fontStyle=1" parent="1" vertex="1">
          <mxGeometry x="2290.000000000002" y="310.0000000000001" width="20" height="20" as="geometry" />
        </mxCell>
        <mxCell id="0kv2POSV4pIMgLlQA3oe-287" value="T" style="fillColor=#23445D;strokeColor=#FFFFFF;strokeWidth=2;fontColor=#FFFFFF;fontStyle=1" parent="1" vertex="1">
          <mxGeometry x="2310.000000000002" y="310.0000000000001" width="20" height="20" as="geometry" />
        </mxCell>
        <mxCell id="0kv2POSV4pIMgLlQA3oe-288" value="W" style="fillColor=#23445D;strokeColor=#FFFFFF;strokeWidth=2;fontColor=#FFFFFF;fontStyle=1" parent="1" vertex="1">
          <mxGeometry x="2330.000000000002" y="310.0000000000001" width="20" height="20" as="geometry" />
        </mxCell>
        <mxCell id="0kv2POSV4pIMgLlQA3oe-289" value="T" style="fillColor=#23445D;strokeColor=#FFFFFF;strokeWidth=2;fontColor=#FFFFFF;fontStyle=1" parent="1" vertex="1">
          <mxGeometry x="2350.000000000002" y="310.0000000000001" width="20" height="20" as="geometry" />
        </mxCell>
        <mxCell id="0kv2POSV4pIMgLlQA3oe-290" value="F" style="fillColor=#23445D;strokeColor=#FFFFFF;strokeWidth=2;fontColor=#FFFFFF;fontStyle=1" parent="1" vertex="1">
          <mxGeometry x="2370.000000000002" y="310.0000000000001" width="20" height="20" as="geometry" />
        </mxCell>
        <mxCell id="0kv2POSV4pIMgLlQA3oe-291" value="S" style="fillColor=#23445D;strokeColor=#FFFFFF;strokeWidth=2;fontColor=#FFFFFF;fontStyle=1" parent="1" vertex="1">
          <mxGeometry x="2390.000000000002" y="310.0000000000001" width="20" height="20" as="geometry" />
        </mxCell>
        <mxCell id="0kv2POSV4pIMgLlQA3oe-292" value="S" style="fillColor=#23445D;strokeColor=#FFFFFF;strokeWidth=2;fontColor=#FFFFFF;fontStyle=1" parent="1" vertex="1">
          <mxGeometry x="2410.000000000002" y="310.0000000000001" width="20" height="20" as="geometry" />
        </mxCell>
        <mxCell id="0kv2POSV4pIMgLlQA3oe-304" value="23 Nov 20" style="fillColor=#23445D;strokeColor=#FFFFFF;strokeWidth=2;fontColor=#FFFFFF;fontStyle=1" parent="1" vertex="1">
          <mxGeometry x="2430.000000000002" y="290.0000000000001" width="140" height="20" as="geometry" />
        </mxCell>
        <mxCell id="0kv2POSV4pIMgLlQA3oe-305" value="M" style="fillColor=#23445D;strokeColor=#FFFFFF;strokeWidth=2;fontColor=#FFFFFF;fontStyle=1" parent="1" vertex="1">
          <mxGeometry x="2430.000000000002" y="310.0000000000001" width="20" height="20" as="geometry" />
        </mxCell>
        <mxCell id="0kv2POSV4pIMgLlQA3oe-306" value="T" style="fillColor=#23445D;strokeColor=#FFFFFF;strokeWidth=2;fontColor=#FFFFFF;fontStyle=1" parent="1" vertex="1">
          <mxGeometry x="2450.000000000002" y="310.0000000000001" width="20" height="20" as="geometry" />
        </mxCell>
        <mxCell id="0kv2POSV4pIMgLlQA3oe-307" value="W" style="fillColor=#23445D;strokeColor=#FFFFFF;strokeWidth=2;fontColor=#FFFFFF;fontStyle=1" parent="1" vertex="1">
          <mxGeometry x="2470.000000000002" y="310.0000000000001" width="20" height="20" as="geometry" />
        </mxCell>
        <mxCell id="0kv2POSV4pIMgLlQA3oe-308" value="T" style="fillColor=#23445D;strokeColor=#FFFFFF;strokeWidth=2;fontColor=#FFFFFF;fontStyle=1" parent="1" vertex="1">
          <mxGeometry x="2490.000000000002" y="310.0000000000001" width="20" height="20" as="geometry" />
        </mxCell>
        <mxCell id="0kv2POSV4pIMgLlQA3oe-309" value="F" style="fillColor=#23445D;strokeColor=#FFFFFF;strokeWidth=2;fontColor=#FFFFFF;fontStyle=1" parent="1" vertex="1">
          <mxGeometry x="2510.000000000002" y="310.0000000000001" width="20" height="20" as="geometry" />
        </mxCell>
        <mxCell id="0kv2POSV4pIMgLlQA3oe-310" value="S" style="fillColor=#23445D;strokeColor=#FFFFFF;strokeWidth=2;fontColor=#FFFFFF;fontStyle=1" parent="1" vertex="1">
          <mxGeometry x="2530.000000000002" y="310.0000000000001" width="20" height="20" as="geometry" />
        </mxCell>
        <mxCell id="0kv2POSV4pIMgLlQA3oe-311" value="S" style="fillColor=#23445D;strokeColor=#FFFFFF;strokeWidth=2;fontColor=#FFFFFF;fontStyle=1" parent="1" vertex="1">
          <mxGeometry x="2550.000000000002" y="310.0000000000001" width="20" height="20" as="geometry" />
        </mxCell>
        <mxCell id="0kv2POSV4pIMgLlQA3oe-319" value="30 Nov 20" style="fillColor=#23445D;strokeColor=#FFFFFF;strokeWidth=2;fontColor=#FFFFFF;fontStyle=1" parent="1" vertex="1">
          <mxGeometry x="2570.000000000002" y="290.0000000000001" width="140" height="20" as="geometry" />
        </mxCell>
        <mxCell id="0kv2POSV4pIMgLlQA3oe-320" value="M" style="fillColor=#23445D;strokeColor=#FFFFFF;strokeWidth=2;fontColor=#FFFFFF;fontStyle=1" parent="1" vertex="1">
          <mxGeometry x="2570.000000000002" y="310.0000000000001" width="20" height="20" as="geometry" />
        </mxCell>
        <mxCell id="0kv2POSV4pIMgLlQA3oe-321" value="T" style="fillColor=#23445D;strokeColor=#FFFFFF;strokeWidth=2;fontColor=#FFFFFF;fontStyle=1" parent="1" vertex="1">
          <mxGeometry x="2590.000000000002" y="310.0000000000001" width="20" height="20" as="geometry" />
        </mxCell>
        <mxCell id="0kv2POSV4pIMgLlQA3oe-322" value="W" style="fillColor=#23445D;strokeColor=#FFFFFF;strokeWidth=2;fontColor=#FFFFFF;fontStyle=1" parent="1" vertex="1">
          <mxGeometry x="2610.000000000002" y="310.0000000000001" width="20" height="20" as="geometry" />
        </mxCell>
        <mxCell id="0kv2POSV4pIMgLlQA3oe-323" value="T" style="fillColor=#23445D;strokeColor=#FFFFFF;strokeWidth=2;fontColor=#FFFFFF;fontStyle=1" parent="1" vertex="1">
          <mxGeometry x="2630.000000000002" y="310.0000000000001" width="20" height="20" as="geometry" />
        </mxCell>
        <mxCell id="0kv2POSV4pIMgLlQA3oe-324" value="F" style="fillColor=#23445D;strokeColor=#FFFFFF;strokeWidth=2;fontColor=#FFFFFF;fontStyle=1" parent="1" vertex="1">
          <mxGeometry x="2650.000000000002" y="310.0000000000001" width="20" height="20" as="geometry" />
        </mxCell>
        <mxCell id="0kv2POSV4pIMgLlQA3oe-325" value="S" style="fillColor=#23445D;strokeColor=#FFFFFF;strokeWidth=2;fontColor=#FFFFFF;fontStyle=1" parent="1" vertex="1">
          <mxGeometry x="2670.000000000002" y="310.0000000000001" width="20" height="20" as="geometry" />
        </mxCell>
        <mxCell id="0kv2POSV4pIMgLlQA3oe-326" value="S" style="fillColor=#23445D;strokeColor=#FFFFFF;strokeWidth=2;fontColor=#FFFFFF;fontStyle=1" parent="1" vertex="1">
          <mxGeometry x="2690.000000000002" y="310.0000000000001" width="20" height="20" as="geometry" />
        </mxCell>
        <mxCell id="0kv2POSV4pIMgLlQA3oe-334" value="7 Dec 20" style="fillColor=#23445D;strokeColor=#FFFFFF;strokeWidth=2;fontColor=#FFFFFF;fontStyle=1" parent="1" vertex="1">
          <mxGeometry x="2710" y="290" width="143.5" height="20" as="geometry" />
        </mxCell>
        <mxCell id="0kv2POSV4pIMgLlQA3oe-335" value="M" style="fillColor=#23445D;strokeColor=#FFFFFF;strokeWidth=2;fontColor=#FFFFFF;fontStyle=1" parent="1" vertex="1">
          <mxGeometry x="2710.000000000002" y="310.0000000000001" width="20" height="20" as="geometry" />
        </mxCell>
        <mxCell id="0kv2POSV4pIMgLlQA3oe-336" value="T" style="fillColor=#23445D;strokeColor=#FFFFFF;strokeWidth=2;fontColor=#FFFFFF;fontStyle=1" parent="1" vertex="1">
          <mxGeometry x="2730.000000000002" y="310.0000000000001" width="20" height="20" as="geometry" />
        </mxCell>
        <mxCell id="0kv2POSV4pIMgLlQA3oe-337" value="W" style="fillColor=#23445D;strokeColor=#FFFFFF;strokeWidth=2;fontColor=#FFFFFF;fontStyle=1" parent="1" vertex="1">
          <mxGeometry x="2750.000000000002" y="310.0000000000001" width="20" height="20" as="geometry" />
        </mxCell>
        <mxCell id="0kv2POSV4pIMgLlQA3oe-338" value="T" style="fillColor=#23445D;strokeColor=#FFFFFF;strokeWidth=2;fontColor=#FFFFFF;fontStyle=1" parent="1" vertex="1">
          <mxGeometry x="2770.000000000002" y="310.0000000000001" width="20" height="20" as="geometry" />
        </mxCell>
        <mxCell id="0kv2POSV4pIMgLlQA3oe-339" value="F" style="fillColor=#23445D;strokeColor=#FFFFFF;strokeWidth=2;fontColor=#FFFFFF;fontStyle=1" parent="1" vertex="1">
          <mxGeometry x="2790.000000000002" y="310.0000000000001" width="20" height="20" as="geometry" />
        </mxCell>
        <mxCell id="0kv2POSV4pIMgLlQA3oe-340" value="S" style="fillColor=#23445D;strokeColor=#FFFFFF;strokeWidth=2;fontColor=#FFFFFF;fontStyle=1" parent="1" vertex="1">
          <mxGeometry x="2810.000000000002" y="310.0000000000001" width="20" height="20" as="geometry" />
        </mxCell>
        <mxCell id="0kv2POSV4pIMgLlQA3oe-341" value="S" style="fillColor=#23445D;strokeColor=#FFFFFF;strokeWidth=2;fontColor=#FFFFFF;fontStyle=1" parent="1" vertex="1">
          <mxGeometry x="2830" y="310" width="23.5" height="20" as="geometry" />
        </mxCell>
        <mxCell id="254" value="" style="shape=mxgraph.flowchart.process;fillColor=#AE4132;strokeColor=#000000;strokeWidth=2;opacity=100" parent="1" vertex="1">
          <mxGeometry x="1310" y="330" width="1420.5" height="20" as="geometry" />
        </mxCell>
        <mxCell id="0kv2POSV4pIMgLlQA3oe-342" value="" style="strokeColor=#DEEDFF;fillColor=#ADC3D9" parent="1" vertex="1">
          <mxGeometry x="990.0000000000018" y="330" width="80.00000000000028" height="20" as="geometry" />
        </mxCell>
        <mxCell id="0kv2POSV4pIMgLlQA3oe-343" value="Xie JL" style="strokeColor=#DEEDFF;fillColor=#CCE5FF" parent="1" vertex="1">
          <mxGeometry x="990.000000000002" y="349.99999999999983" width="80.00000000000028" height="20" as="geometry" />
        </mxCell>
        <mxCell id="0kv2POSV4pIMgLlQA3oe-344" value="Xie JL" style="strokeColor=#DEEDFF" parent="1" vertex="1">
          <mxGeometry x="990.000000000002" y="369.9999999999997" width="80.00000000000028" height="20" as="geometry" />
        </mxCell>
        <mxCell id="0kv2POSV4pIMgLlQA3oe-345" value="Xie JL" style="strokeColor=#DEEDFF" parent="1" vertex="1">
          <mxGeometry x="990.0000000000018" y="390.0000000000001" width="80.00000000000028" height="20" as="geometry" />
        </mxCell>
        <mxCell id="0kv2POSV4pIMgLlQA3oe-346" value="" style="strokeColor=#9673a6;fillColor=#e1d5e7;" parent="1" vertex="1">
          <mxGeometry x="990.0000000000016" y="430.0000000000001" width="80.00000000000028" height="20" as="geometry" />
        </mxCell>
        <mxCell id="0kv2POSV4pIMgLlQA3oe-347" value="Chen YX" style="strokeColor=#DEEDFF" parent="1" vertex="1">
          <mxGeometry x="990.0000000000016" y="450.00000000000034" width="80.00000000000028" height="20" as="geometry" />
        </mxCell>
        <mxCell id="0kv2POSV4pIMgLlQA3oe-348" value="Xie JL" style="strokeColor=#DEEDFF" parent="1" vertex="1">
          <mxGeometry x="990.0000000000023" y="470.0000000000007" width="80.00000000000028" height="20" as="geometry" />
        </mxCell>
        <mxCell id="0kv2POSV4pIMgLlQA3oe-349" value="Chen YX" style="strokeColor=#DEEDFF" parent="1" vertex="1">
          <mxGeometry x="990.0000000000023" y="490.00000000000057" width="80.00000000000028" height="20" as="geometry" />
        </mxCell>
        <mxCell id="0kv2POSV4pIMgLlQA3oe-350" value="" style="strokeColor=#9673a6;fillColor=#e1d5e7;" parent="1" vertex="1">
          <mxGeometry x="990.000000000002" y="510.0000000000009" width="80.00000000000028" height="20" as="geometry" />
        </mxCell>
        <mxCell id="0kv2POSV4pIMgLlQA3oe-351" value="Tao CY" style="strokeColor=#DEEDFF" parent="1" vertex="1">
          <mxGeometry x="990.000000000002" y="530.0000000000009" width="80.00000000000028" height="20" as="geometry" />
        </mxCell>
        <mxCell id="0kv2POSV4pIMgLlQA3oe-352" value="Han LY" style="strokeColor=#DEEDFF" parent="1" vertex="1">
          <mxGeometry x="990.000000000002" y="550.0000000000011" width="80.00000000000028" height="20" as="geometry" />
        </mxCell>
        <mxCell id="0kv2POSV4pIMgLlQA3oe-353" value="Tao CY" style="strokeColor=#DEEDFF" parent="1" vertex="1">
          <mxGeometry x="990.0000000000018" y="570.0000000000015" width="80.00000000000028" height="20" as="geometry" />
        </mxCell>
        <mxCell id="0kv2POSV4pIMgLlQA3oe-354" value="" style="strokeColor=#9673a6;fillColor=#e1d5e7;" parent="1" vertex="1">
          <mxGeometry x="990.0000000000018" y="590.0000000000014" width="80.00000000000028" height="20" as="geometry" />
        </mxCell>
        <mxCell id="0kv2POSV4pIMgLlQA3oe-355" value="Han LY" style="strokeColor=#DEEDFF" parent="1" vertex="1">
          <mxGeometry x="990.0000000000014" y="610.0000000000018" width="80.00000000000028" height="20" as="geometry" />
        </mxCell>
        <mxCell id="0kv2POSV4pIMgLlQA3oe-356" value="Tao CY" style="strokeColor=#DEEDFF;fillColor=#FFFFFF" parent="1" vertex="1">
          <mxGeometry x="990.0000000000014" y="630.0000000000018" width="80.00000000000028" height="20" as="geometry" />
        </mxCell>
        <mxCell id="0kv2POSV4pIMgLlQA3oe-357" value="" style="strokeColor=#9673a6;fillColor=#e1d5e7;" parent="1" vertex="1">
          <mxGeometry x="990.0000000000014" y="650.000000000002" width="80.00000000000028" height="20" as="geometry" />
        </mxCell>
        <mxCell id="0kv2POSV4pIMgLlQA3oe-358" value="Han LY" style="strokeColor=#DEEDFF" parent="1" vertex="1">
          <mxGeometry x="990.0000000000027" y="670.0000000000023" width="80.00000000000028" height="20" as="geometry" />
        </mxCell>
        <mxCell id="0kv2POSV4pIMgLlQA3oe-359" value="Chen YX" style="strokeColor=#DEEDFF" parent="1" vertex="1">
          <mxGeometry x="990.0000000000027" y="690.000000000002" width="80.00000000000028" height="20" as="geometry" />
        </mxCell>
        <mxCell id="0kv2POSV4pIMgLlQA3oe-360" value="" style="strokeColor=#9673a6;fillColor=#e1d5e7;" parent="1" vertex="1">
          <mxGeometry x="990.0000000000025" y="710.0000000000025" width="80.00000000000028" height="20" as="geometry" />
        </mxCell>
        <mxCell id="0kv2POSV4pIMgLlQA3oe-361" value="Tao CY" style="strokeColor=#DEEDFF" parent="1" vertex="1">
          <mxGeometry x="991.0000000000023" y="730.0000000000025" width="80.00000000000028" height="20" as="geometry" />
        </mxCell>
        <mxCell id="0kv2POSV4pIMgLlQA3oe-362" value="Han LY" style="strokeColor=#DEEDFF" parent="1" vertex="1">
          <mxGeometry x="990.0000000000023" y="750.0000000000027" width="80.00000000000028" height="20" as="geometry" />
        </mxCell>
        <mxCell id="0kv2POSV4pIMgLlQA3oe-363" value="Chen YX" style="strokeColor=#DEEDFF" parent="1" vertex="1">
          <mxGeometry x="990.0000000000032" y="770.000000000003" width="80.00000000000028" height="20" as="geometry" />
        </mxCell>
        <mxCell id="0kv2POSV4pIMgLlQA3oe-368" value="Assignee" style="fillColor=#23445D;strokeColor=#FFFFFF;strokeWidth=2;fontColor=#FFFFFF;fontStyle=1" parent="1" vertex="1">
          <mxGeometry x="990.0000000000018" y="290.00000000000006" width="80.00000000000006" height="40.00000000000001" as="geometry" />
        </mxCell>
        <mxCell id="242" value="Xie JL" style="shape=mxgraph.flowchart.process;fillColor=#AE4132;strokeColor=#000000;strokeWidth=2;opacity=50" parent="1" vertex="1">
          <mxGeometry x="1310" y="350" width="1420" height="20" as="geometry" />
        </mxCell>
        <mxCell id="245" value="Xie JL" style="shape=mxgraph.flowchart.process;fillColor=#AE4132;strokeColor=none;strokeWidth=2;opacity=50" parent="1" vertex="1">
          <mxGeometry x="1490" y="390" width="1240" height="20" as="geometry" />
        </mxCell>
        <mxCell id="0kv2POSV4pIMgLlQA3oe-372" value="Chen YX &amp; Xie JL &amp; Han LY &amp; Tao CY" style="shape=mxgraph.flowchart.process;strokeWidth=2;opacity=50;fillColor=#AE4132;" parent="1" vertex="1">
          <mxGeometry x="1490" y="410" width="1240" height="20" as="geometry" />
        </mxCell>
        <mxCell id="0kv2POSV4pIMgLlQA3oe-373" value="1" style="strokeColor=#DEEDFF;fillColor=#CCE5FE;" parent="1" vertex="1">
          <mxGeometry x="630" y="410.00000000000017" width="40" height="20" as="geometry" />
        </mxCell>
        <mxCell id="0kv2POSV4pIMgLlQA3oe-374" value="Android" style="align=left;strokeColor=#DEEDFF;fillColor=#CCE5FE;" parent="1" vertex="1">
          <mxGeometry x="670" y="410.00000000000017" width="320" height="20" as="geometry" />
        </mxCell>
        <mxCell id="0kv2POSV4pIMgLlQA3oe-375" value="61 days" style="strokeColor=#DEEDFF;fillColor=#CCE5FE;" parent="1" vertex="1">
          <mxGeometry x="1070.0000000000018" y="410.0000000000001" width="80.00000000000028" height="20" as="geometry" />
        </mxCell>
        <mxCell id="0kv2POSV4pIMgLlQA3oe-376" value="6.10.20" style="strokeColor=#DEEDFF;fillColor=#CCE5FE;" parent="1" vertex="1">
          <mxGeometry x="1150.000000000002" y="410.0000000000001" width="80.00000000000028" height="20" as="geometry" />
        </mxCell>
        <mxCell id="0kv2POSV4pIMgLlQA3oe-377" value="7.12.20" style="strokeColor=#DEEDFF;fillColor=#CCE5FE;" parent="1" vertex="1">
          <mxGeometry x="1230.0000000000014" y="410.0000000000004" width="80.00000000000028" height="20" as="geometry" />
        </mxCell>
        <mxCell id="0kv2POSV4pIMgLlQA3oe-378" value="" style="strokeColor=#DEEDFF;fillColor=#CCE5FE;" parent="1" vertex="1">
          <mxGeometry x="990.0000000000018" y="410.0000000000001" width="80.00000000000028" height="20" as="geometry" />
        </mxCell>
        <mxCell id="0kv2POSV4pIMgLlQA3oe-381" value="Xie JL" style="shape=mxgraph.flowchart.process;fillColor=#AE4132;strokeColor=none;strokeWidth=2;opacity=50" parent="1" vertex="1">
          <mxGeometry x="1770" y="470" width="140" height="20" as="geometry" />
        </mxCell>
        <mxCell id="0kv2POSV4pIMgLlQA3oe-382" value="Chen YX" style="shape=mxgraph.flowchart.process;fillColor=#AE4132;strokeWidth=2;opacity=50;strokeColor=#F7F7F7;" parent="1" vertex="1">
          <mxGeometry x="1770" y="490" width="140" height="20" as="geometry" />
        </mxCell>
        <mxCell id="0kv2POSV4pIMgLlQA3oe-383" value="" style="shape=mxgraph.arrows.bent_right_arrow;fillColor=#AE4132;strokeColor=none;strokeWidth=2;direction=south" parent="1" vertex="1">
          <mxGeometry x="1770.000000000002" y="459.99999999999966" width="10.000000000000341" height="9.99999999999983" as="geometry" />
        </mxCell>
        <mxCell id="0kv2POSV4pIMgLlQA3oe-384" value="Tao CY &amp; Han LY" style="shape=mxgraph.flowchart.process;fillColor=#f8cecc;strokeColor=#b85450;strokeWidth=2;opacity=80;" parent="1" vertex="1">
          <mxGeometry x="1490" y="510" width="540" height="20" as="geometry" />
        </mxCell>
        <mxCell id="0kv2POSV4pIMgLlQA3oe-386" value="" style="shape=mxgraph.arrows.bent_right_arrow;fillColor=#AE4132;strokeColor=none;strokeWidth=2;direction=south" parent="1" vertex="1">
          <mxGeometry x="1871.000000000002" y="558.9999999999997" width="10.000000000000341" height="9.99999999999983" as="geometry" />
        </mxCell>
        <mxCell id="0kv2POSV4pIMgLlQA3oe-387" value="" style="shape=mxgraph.arrows.bent_right_arrow;fillColor=#AE4132;strokeColor=none;strokeWidth=2;direction=south" parent="1" vertex="1">
          <mxGeometry x="1870.000000000002" y="549.9999999999997" width="10.000000000000341" height="9.99999999999983" as="geometry" />
        </mxCell>
        <mxCell id="0kv2POSV4pIMgLlQA3oe-389" value="Tao CY &amp; Han LY" style="shape=mxgraph.flowchart.process;fillColor=#f8cecc;strokeColor=#b85450;strokeWidth=2;opacity=80;" parent="1" vertex="1">
          <mxGeometry x="2030" y="590" width="280" height="20" as="geometry" />
        </mxCell>
        <mxCell id="0kv2POSV4pIMgLlQA3oe-391" value="" style="shape=mxgraph.arrows.bent_right_arrow;fillColor=#AE4132;strokeColor=none;strokeWidth=2;direction=south" parent="1" vertex="1">
          <mxGeometry x="2030.000000000002" y="579.9999999999997" width="10.000000000000341" height="9.99999999999983" as="geometry" />
        </mxCell>
        <mxCell id="268" value="Tao CY" style="shape=mxgraph.flowchart.process;fillColor=#AE4132;strokeWidth=2;opacity=50;strokeColor=none;" parent="1" vertex="1">
          <mxGeometry x="2150" y="630" width="160" height="20" as="geometry" />
        </mxCell>
        <mxCell id="0kv2POSV4pIMgLlQA3oe-392" value="" style="shape=mxgraph.arrows.bent_right_arrow;fillColor=#AE4132;strokeColor=none;strokeWidth=2;direction=south" parent="1" vertex="1">
          <mxGeometry x="2150.000000000002" y="619.9999999999997" width="10.000000000000341" height="9.99999999999983" as="geometry" />
        </mxCell>
        <mxCell id="266" value="Tao CY" style="shape=mxgraph.flowchart.process;fillColor=#AE4132;strokeColor=none;strokeWidth=2;opacity=50" parent="1" vertex="1">
          <mxGeometry x="2310" y="730" width="260" height="20" as="geometry" />
        </mxCell>
        <mxCell id="0kv2POSV4pIMgLlQA3oe-405" value="Chen YX" style="shape=mxgraph.flowchart.process;fillColor=#AE4132;strokeWidth=2;opacity=50;strokeColor=#FFFFFF;" parent="1" vertex="1">
          <mxGeometry x="2310" y="770" width="420" height="20" as="geometry" />
        </mxCell>
        <mxCell id="0kv2POSV4pIMgLlQA3oe-408" value="Section&lt;br&gt;" style="rounded=0;whiteSpace=wrap;html=1;strokeColor=#F7F7F7;fontSize=43;opacity=80;align=left;fillColor=#CCE5FE;" parent="1" vertex="1">
          <mxGeometry x="637" y="190" width="183" height="60" as="geometry" />
        </mxCell>
        <mxCell id="0kv2POSV4pIMgLlQA3oe-409" value="Milestone" style="rounded=0;whiteSpace=wrap;html=1;strokeColor=#9673a6;fontSize=43;opacity=80;align=left;fillColor=#e1d5e7;" parent="1" vertex="1">
          <mxGeometry x="850" y="190" width="220" height="60" as="geometry" />
        </mxCell>
        <mxCell id="0kv2POSV4pIMgLlQA3oe-410" value="Color label" style="text;html=1;strokeColor=none;fillColor=none;align=center;verticalAlign=middle;whiteSpace=wrap;rounded=0;fontSize=43;opacity=80;" parent="1" vertex="1">
          <mxGeometry x="330" y="210" width="330" height="20" as="geometry" />
        </mxCell>
        <mxCell id="0kv2POSV4pIMgLlQA3oe-441" value="2.1" style="strokeColor=#9673a6;fillColor=#e1d5e7;" parent="1" vertex="1">
          <mxGeometry x="629.9999999999999" y="810.0000000000002" width="40" height="20" as="geometry" />
        </mxCell>
        <mxCell id="0kv2POSV4pIMgLlQA3oe-442" value="Milestone 5: Connect Flowgate :Translate java to swift" style="align=left;strokeColor=#9673a6;fillColor=#e1d5e7;" parent="1" vertex="1">
          <mxGeometry x="669.9999999999999" y="810.0000000000002" width="320.0000000000001" height="20" as="geometry" />
        </mxCell>
        <mxCell id="0kv2POSV4pIMgLlQA3oe-443" value="21 days" style="strokeColor=#9673a6;fillColor=#e1d5e7;" parent="1" vertex="1">
          <mxGeometry x="1070.0000000000016" y="810.0000000000001" width="80.00000000000028" height="20" as="geometry" />
        </mxCell>
        <mxCell id="0kv2POSV4pIMgLlQA3oe-444" value="6.10.20" style="strokeColor=#9673a6;fillColor=#e1d5e7;" parent="1" vertex="1">
          <mxGeometry x="1150.0000000000018" y="810.0000000000001" width="80.00000000000028" height="20" as="geometry" />
        </mxCell>
        <mxCell id="0kv2POSV4pIMgLlQA3oe-445" value="27.10.20" style="strokeColor=#9673a6;fillColor=#e1d5e7;" parent="1" vertex="1">
          <mxGeometry x="1230.0000000000014" y="810.0000000000005" width="80.00000000000028" height="20" as="geometry" />
        </mxCell>
        <mxCell id="0kv2POSV4pIMgLlQA3oe-446" value="2.1.1" style="strokeColor=#DEEDFF" parent="1" vertex="1">
          <mxGeometry x="629.9999999999999" y="830.0000000000005" width="40" height="20" as="geometry" />
        </mxCell>
        <mxCell id="0kv2POSV4pIMgLlQA3oe-447" value="Init and get token" style="align=left;strokeColor=#DEEDFF" parent="1" vertex="1">
          <mxGeometry x="669.9999999999999" y="830.0000000000005" width="320.0000000000001" height="20" as="geometry" />
        </mxCell>
        <mxCell id="0kv2POSV4pIMgLlQA3oe-448" value="14 days" style="strokeColor=#DEEDFF" parent="1" vertex="1">
          <mxGeometry x="1070.0000000000016" y="830.0000000000003" width="80.00000000000028" height="20" as="geometry" />
        </mxCell>
        <mxCell id="0kv2POSV4pIMgLlQA3oe-449" value="6.10.20" style="strokeColor=#DEEDFF" parent="1" vertex="1">
          <mxGeometry x="1150.0000000000018" y="830.0000000000003" width="80.00000000000028" height="20" as="geometry" />
        </mxCell>
        <mxCell id="0kv2POSV4pIMgLlQA3oe-450" value="20.10.20" style="strokeColor=#DEEDFF" parent="1" vertex="1">
          <mxGeometry x="1230.0000000000014" y="830.0000000000007" width="80.00000000000028" height="20" as="geometry" />
        </mxCell>
        <mxCell id="0kv2POSV4pIMgLlQA3oe-451" value="2.1.2" style="strokeColor=#DEEDFF" parent="1" vertex="1">
          <mxGeometry x="630.0000000000007" y="850.0000000000007" width="40" height="20" as="geometry" />
        </mxCell>
        <mxCell id="0kv2POSV4pIMgLlQA3oe-452" value="Post method" style="align=left;strokeColor=#DEEDFF" parent="1" vertex="1">
          <mxGeometry x="670.0000000000007" y="850.0000000000007" width="319.9999999999994" height="20" as="geometry" />
        </mxCell>
        <mxCell id="0kv2POSV4pIMgLlQA3oe-453" value="7 days" style="strokeColor=#DEEDFF" parent="1" vertex="1">
          <mxGeometry x="1070.0000000000023" y="850.0000000000007" width="80.00000000000028" height="20" as="geometry" />
        </mxCell>
        <mxCell id="0kv2POSV4pIMgLlQA3oe-454" value="20.10.20" style="strokeColor=#DEEDFF" parent="1" vertex="1">
          <mxGeometry x="1150.0000000000027" y="850.0000000000007" width="80.00000000000028" height="20" as="geometry" />
        </mxCell>
        <mxCell id="0kv2POSV4pIMgLlQA3oe-455" value="27.10.20" style="strokeColor=#DEEDFF" parent="1" vertex="1">
          <mxGeometry x="1230.0000000000023" y="850.0000000000009" width="80.00000000000028" height="20" as="geometry" />
        </mxCell>
        <mxCell id="0kv2POSV4pIMgLlQA3oe-456" value="2.1.3" style="strokeColor=#DEEDFF" parent="1" vertex="1">
          <mxGeometry x="630.0000000000007" y="870.0000000000006" width="40" height="20" as="geometry" />
        </mxCell>
        <mxCell id="0kv2POSV4pIMgLlQA3oe-457" value="Get method" style="align=left;strokeColor=#DEEDFF" parent="1" vertex="1">
          <mxGeometry x="670.0000000000007" y="870.0000000000006" width="319.9999999999994" height="20" as="geometry" />
        </mxCell>
        <mxCell id="0kv2POSV4pIMgLlQA3oe-458" value="7 days" style="strokeColor=#DEEDFF" parent="1" vertex="1">
          <mxGeometry x="1070.0000000000023" y="870.0000000000006" width="80.00000000000028" height="20" as="geometry" />
        </mxCell>
        <mxCell id="0kv2POSV4pIMgLlQA3oe-459" value="20.10.20" style="strokeColor=#DEEDFF" parent="1" vertex="1">
          <mxGeometry x="1150.0000000000027" y="870.0000000000006" width="80.00000000000028" height="20" as="geometry" />
        </mxCell>
        <mxCell id="0kv2POSV4pIMgLlQA3oe-460" value="27.10.20" style="strokeColor=#DEEDFF" parent="1" vertex="1">
          <mxGeometry x="1230.0000000000023" y="870.0000000000008" width="80.00000000000028" height="20" as="geometry" />
        </mxCell>
        <mxCell id="0kv2POSV4pIMgLlQA3oe-461" value="2.2" style="strokeColor=#9673a6;fillColor=#e1d5e7;" parent="1" vertex="1">
          <mxGeometry x="630.0000000000003" y="890.000000000001" width="40" height="20" as="geometry" />
        </mxCell>
        <mxCell id="0kv2POSV4pIMgLlQA3oe-462" value="Milestone 2: Baisc Integration of AR" style="align=left;strokeColor=#9673a6;fillColor=#e1d5e7;" parent="1" vertex="1">
          <mxGeometry x="670.0000000000003" y="890.000000000001" width="319.99999999999966" height="20.00000000000003" as="geometry" />
        </mxCell>
        <mxCell id="0kv2POSV4pIMgLlQA3oe-463" value="21 days" style="strokeColor=#9673a6;fillColor=#e1d5e7;" parent="1" vertex="1">
          <mxGeometry x="1070.000000000002" y="890.0000000000009" width="80.00000000000028" height="20" as="geometry" />
        </mxCell>
        <mxCell id="0kv2POSV4pIMgLlQA3oe-464" value="6.10.20" style="strokeColor=#9673a6;fillColor=#e1d5e7;" parent="1" vertex="1">
          <mxGeometry x="1150.0000000000025" y="890.0000000000009" width="80.00000000000028" height="20" as="geometry" />
        </mxCell>
        <mxCell id="0kv2POSV4pIMgLlQA3oe-465" value="2.11.20" style="strokeColor=#9673a6;fillColor=#e1d5e7;" parent="1" vertex="1">
          <mxGeometry x="1230.0000000000018" y="890.0000000000013" width="80.00000000000028" height="20" as="geometry" />
        </mxCell>
        <mxCell id="0kv2POSV4pIMgLlQA3oe-466" value="2.2.1" style="strokeColor=#DEEDFF" parent="1" vertex="1">
          <mxGeometry x="630.0000000000002" y="910.000000000001" width="40" height="20" as="geometry" />
        </mxCell>
        <mxCell id="0kv2POSV4pIMgLlQA3oe-467" value="Create an AR app on phone" style="align=left;strokeColor=#DEEDFF" parent="1" vertex="1">
          <mxGeometry x="670.0000000000002" y="910.000000000001" width="319.9999999999997" height="20" as="geometry" />
        </mxCell>
        <mxCell id="0kv2POSV4pIMgLlQA3oe-468" value="19 days" style="strokeColor=#DEEDFF" parent="1" vertex="1">
          <mxGeometry x="1070.000000000002" y="910.0000000000009" width="80.00000000000028" height="20" as="geometry" />
        </mxCell>
        <mxCell id="0kv2POSV4pIMgLlQA3oe-469" value="6.10.20" style="strokeColor=#DEEDFF" parent="1" vertex="1">
          <mxGeometry x="1150.0000000000023" y="910.0000000000009" width="80.00000000000028" height="20" as="geometry" />
        </mxCell>
        <mxCell id="0kv2POSV4pIMgLlQA3oe-470" value="25.10.20" style="strokeColor=#DEEDFF" parent="1" vertex="1">
          <mxGeometry x="1230.0000000000018" y="910.0000000000013" width="80.00000000000028" height="20" as="geometry" />
        </mxCell>
        <mxCell id="0kv2POSV4pIMgLlQA3oe-471" value="2.2.2" style="strokeColor=#DEEDFF" parent="1" vertex="1">
          <mxGeometry x="630.0000000000002" y="930.0000000000013" width="40" height="20" as="geometry" />
        </mxCell>
        <mxCell id="0kv2POSV4pIMgLlQA3oe-472" value="Scan bar scan" style="align=left;strokeColor=#DEEDFF" parent="1" vertex="1">
          <mxGeometry x="670.0000000000002" y="930.0000000000013" width="319.9999999999997" height="20" as="geometry" />
        </mxCell>
        <mxCell id="0kv2POSV4pIMgLlQA3oe-473" value="19 days" style="strokeColor=#DEEDFF" parent="1" vertex="1">
          <mxGeometry x="1070.000000000002" y="930.0000000000011" width="80.00000000000028" height="20" as="geometry" />
        </mxCell>
        <mxCell id="0kv2POSV4pIMgLlQA3oe-474" value="6.10.20" style="strokeColor=#DEEDFF" parent="1" vertex="1">
          <mxGeometry x="1150.0000000000023" y="930.0000000000011" width="80.00000000000028" height="20" as="geometry" />
        </mxCell>
        <mxCell id="0kv2POSV4pIMgLlQA3oe-475" value="25.10.20" style="strokeColor=#DEEDFF" parent="1" vertex="1">
          <mxGeometry x="1230.0000000000018" y="930.0000000000015" width="80.00000000000028" height="20" as="geometry" />
        </mxCell>
        <mxCell id="0kv2POSV4pIMgLlQA3oe-476" value="2.2.3" style="strokeColor=#DEEDFF" parent="1" vertex="1">
          <mxGeometry x="630" y="950.0000000000016" width="40" height="20" as="geometry" />
        </mxCell>
        <mxCell id="0kv2POSV4pIMgLlQA3oe-477" value="Integrate 1.2.1 and 1.2.2" style="align=left;strokeColor=#DEEDFF" parent="1" vertex="1">
          <mxGeometry x="670" y="950.0000000000016" width="320" height="20" as="geometry" />
        </mxCell>
        <mxCell id="0kv2POSV4pIMgLlQA3oe-478" value="11 days" style="strokeColor=#DEEDFF" parent="1" vertex="1">
          <mxGeometry x="1070.0000000000018" y="950.0000000000015" width="80.00000000000028" height="20" as="geometry" />
        </mxCell>
        <mxCell id="0kv2POSV4pIMgLlQA3oe-479" value="25.10.20" style="strokeColor=#DEEDFF" parent="1" vertex="1">
          <mxGeometry x="1150.000000000002" y="950.0000000000015" width="80.00000000000028" height="20" as="geometry" />
        </mxCell>
        <mxCell id="0kv2POSV4pIMgLlQA3oe-480" value="2.11.20" style="strokeColor=#DEEDFF" parent="1" vertex="1">
          <mxGeometry x="1230.0000000000014" y="950.0000000000018" width="80.00000000000028" height="20" as="geometry" />
        </mxCell>
        <mxCell id="0kv2POSV4pIMgLlQA3oe-481" value="2.3" style="strokeColor=#9673a6;fillColor=#e1d5e7;" parent="1" vertex="1">
          <mxGeometry x="630" y="970.0000000000014" width="40" height="20" as="geometry" />
        </mxCell>
        <mxCell id="0kv2POSV4pIMgLlQA3oe-482" value="Milestone 3: Finish a Prototype" style="align=left;strokeColor=#9673a6;fillColor=#e1d5e7;" parent="1" vertex="1">
          <mxGeometry x="670" y="970.0000000000014" width="320" height="20" as="geometry" />
        </mxCell>
        <mxCell id="0kv2POSV4pIMgLlQA3oe-483" value="14 days" style="strokeColor=#9673a6;fillColor=#e1d5e7;" parent="1" vertex="1">
          <mxGeometry x="1070.0000000000018" y="970.0000000000014" width="80.00000000000028" height="20" as="geometry" />
        </mxCell>
        <mxCell id="0kv2POSV4pIMgLlQA3oe-484" value="2.11.20" style="strokeColor=#9673a6;fillColor=#e1d5e7;" parent="1" vertex="1">
          <mxGeometry x="1150.000000000002" y="970.0000000000014" width="80.00000000000028" height="20" as="geometry" />
        </mxCell>
        <mxCell id="0kv2POSV4pIMgLlQA3oe-485" value="16.11.20" style="strokeColor=#9673a6;fillColor=#e1d5e7;" parent="1" vertex="1">
          <mxGeometry x="1230.0000000000014" y="970.0000000000016" width="80.00000000000028" height="20" as="geometry" />
        </mxCell>
        <mxCell id="0kv2POSV4pIMgLlQA3oe-486" value="2.3.1" style="strokeColor=#DEEDFF" parent="1" vertex="1">
          <mxGeometry x="629.9999999999998" y="990.0000000000018" width="40" height="20" as="geometry" />
        </mxCell>
        <mxCell id="0kv2POSV4pIMgLlQA3oe-487" value="Transfer the bar code position to AR world position" style="align=left;strokeColor=#DEEDFF" parent="1" vertex="1">
          <mxGeometry x="669.9999999999998" y="990.0000000000018" width="320.0000000000003" height="20" as="geometry" />
        </mxCell>
        <mxCell id="0kv2POSV4pIMgLlQA3oe-488" value="7 days" style="strokeColor=#DEEDFF" parent="1" vertex="1">
          <mxGeometry x="1070.0000000000014" y="990.0000000000018" width="80.00000000000028" height="20" as="geometry" />
        </mxCell>
        <mxCell id="0kv2POSV4pIMgLlQA3oe-489" value="2.11.20" style="strokeColor=#DEEDFF" parent="1" vertex="1">
          <mxGeometry x="1150.0000000000018" y="990.0000000000018" width="80.00000000000028" height="20" as="geometry" />
        </mxCell>
        <mxCell id="0kv2POSV4pIMgLlQA3oe-490" value="9.11.20" style="strokeColor=#DEEDFF" parent="1" vertex="1">
          <mxGeometry x="1230.0000000000011" y="990.000000000002" width="80.00000000000028" height="20" as="geometry" />
        </mxCell>
        <mxCell id="0kv2POSV4pIMgLlQA3oe-491" value="2.3.2" style="strokeColor=#DEEDFF;fillColor=#FFFFFF" parent="1" vertex="1">
          <mxGeometry x="629.9999999999997" y="1010.0000000000018" width="40" height="20" as="geometry" />
        </mxCell>
        <mxCell id="0kv2POSV4pIMgLlQA3oe-492" value="Place some information on the bar code position" style="align=left;strokeColor=#DEEDFF;fillColor=#FFFFFF" parent="1" vertex="1">
          <mxGeometry x="669.9999999999997" y="1010.0000000000018" width="320.00000000000034" height="20" as="geometry" />
        </mxCell>
        <mxCell id="0kv2POSV4pIMgLlQA3oe-493" value="7 days" style="strokeColor=#DEEDFF;fillColor=#FFFFFF" parent="1" vertex="1">
          <mxGeometry x="1070.0000000000014" y="1010.0000000000018" width="80.00000000000028" height="20" as="geometry" />
        </mxCell>
        <mxCell id="0kv2POSV4pIMgLlQA3oe-494" value="9.11.20" style="strokeColor=#DEEDFF;fillColor=#FFFFFF" parent="1" vertex="1">
          <mxGeometry x="1150.0000000000016" y="1010.0000000000018" width="80.00000000000028" height="20" as="geometry" />
        </mxCell>
        <mxCell id="0kv2POSV4pIMgLlQA3oe-495" value="16.11.20" style="strokeColor=#DEEDFF;fillColor=#FFFFFF" parent="1" vertex="1">
          <mxGeometry x="1230.0000000000011" y="1010.000000000002" width="80.00000000000028" height="20" as="geometry" />
        </mxCell>
        <mxCell id="0kv2POSV4pIMgLlQA3oe-496" value="2.4" style="strokeColor=#9673a6;fillColor=#e1d5e7;" parent="1" vertex="1">
          <mxGeometry x="629.9999999999997" y="1030.000000000002" width="40" height="20" as="geometry" />
        </mxCell>
        <mxCell id="0kv2POSV4pIMgLlQA3oe-497" value="Milestone 4: Good UX" style="align=left;strokeColor=#9673a6;fillColor=#e1d5e7;" parent="1" vertex="1">
          <mxGeometry x="669.9999999999997" y="1030.000000000002" width="320.0000000000004" height="20" as="geometry" />
        </mxCell>
        <mxCell id="0kv2POSV4pIMgLlQA3oe-498" value="21 days" style="strokeColor=#9673a6;fillColor=#e1d5e7;" parent="1" vertex="1">
          <mxGeometry x="1070.0000000000014" y="1030.000000000002" width="80.00000000000028" height="20" as="geometry" />
        </mxCell>
        <mxCell id="0kv2POSV4pIMgLlQA3oe-499" value="17.11.20" style="strokeColor=#9673a6;fillColor=#e1d5e7;" parent="1" vertex="1">
          <mxGeometry x="1150.0000000000016" y="1030.000000000002" width="80.00000000000028" height="20" as="geometry" />
        </mxCell>
        <mxCell id="0kv2POSV4pIMgLlQA3oe-500" value="7.12.20" style="strokeColor=#9673a6;fillColor=#e1d5e7;" parent="1" vertex="1">
          <mxGeometry x="1230.0000000000011" y="1030.0000000000023" width="80.00000000000028" height="20" as="geometry" />
        </mxCell>
        <mxCell id="0kv2POSV4pIMgLlQA3oe-501" value="2.4.1" style="strokeColor=#DEEDFF" parent="1" vertex="1">
          <mxGeometry x="630.000000000001" y="1050.0000000000023" width="40" height="20" as="geometry" />
        </mxCell>
        <mxCell id="0kv2POSV4pIMgLlQA3oe-502" value="Change workflow" style="align=left;strokeColor=#DEEDFF" parent="1" vertex="1">
          <mxGeometry x="670.000000000001" y="1050.0000000000023" width="319.999999999999" height="20" as="geometry" />
        </mxCell>
        <mxCell id="0kv2POSV4pIMgLlQA3oe-503" value="14 days" style="strokeColor=#DEEDFF" parent="1" vertex="1">
          <mxGeometry x="1070.0000000000027" y="1050.0000000000023" width="80.00000000000028" height="20" as="geometry" />
        </mxCell>
        <mxCell id="0kv2POSV4pIMgLlQA3oe-504" value="17.11.20" style="strokeColor=#DEEDFF" parent="1" vertex="1">
          <mxGeometry x="1150" y="1050" width="80" height="20" as="geometry" />
        </mxCell>
        <mxCell id="0kv2POSV4pIMgLlQA3oe-505" value="30.11.20" style="strokeColor=#DEEDFF" parent="1" vertex="1">
          <mxGeometry x="1230.0000000000025" y="1050.0000000000025" width="80.00000000000028" height="20" as="geometry" />
        </mxCell>
        <mxCell id="0kv2POSV4pIMgLlQA3oe-506" value="2.4.2" style="strokeColor=#DEEDFF" parent="1" vertex="1">
          <mxGeometry x="630.000000000001" y="1070.0000000000023" width="40" height="20" as="geometry" />
        </mxCell>
        <mxCell id="0kv2POSV4pIMgLlQA3oe-507" value="Improve userinterface" style="align=left;strokeColor=#DEEDFF" parent="1" vertex="1">
          <mxGeometry x="670.000000000001" y="1070.0000000000023" width="319.999999999999" height="20" as="geometry" />
        </mxCell>
        <mxCell id="0kv2POSV4pIMgLlQA3oe-508" value="21 days" style="strokeColor=#DEEDFF" parent="1" vertex="1">
          <mxGeometry x="1070.0000000000027" y="1070.000000000002" width="80.00000000000028" height="20" as="geometry" />
        </mxCell>
        <mxCell id="0kv2POSV4pIMgLlQA3oe-509" value="17.11.20" style="strokeColor=#DEEDFF" parent="1" vertex="1">
          <mxGeometry x="1150.000000000003" y="1070.000000000002" width="80.00000000000028" height="20" as="geometry" />
        </mxCell>
        <mxCell id="0kv2POSV4pIMgLlQA3oe-510" value="7.12.20" style="strokeColor=#DEEDFF" parent="1" vertex="1">
          <mxGeometry x="1230.0000000000025" y="1070.0000000000023" width="80.00000000000028" height="20" as="geometry" />
        </mxCell>
        <mxCell id="0kv2POSV4pIMgLlQA3oe-511" value="2.5" style="strokeColor=#9673a6;fillColor=#e1d5e7;" parent="1" vertex="1">
          <mxGeometry x="630.0000000000007" y="1090.0000000000025" width="40" height="20" as="geometry" />
        </mxCell>
        <mxCell id="0kv2POSV4pIMgLlQA3oe-512" value="Improve algorithm: Translate Java to Swift" style="align=left;strokeColor=#9673a6;fillColor=#e1d5e7;" parent="1" vertex="1">
          <mxGeometry x="670.0000000000007" y="1090.0000000000025" width="319.99999999999926" height="20" as="geometry" />
        </mxCell>
        <mxCell id="0kv2POSV4pIMgLlQA3oe-513" value="21 days" style="strokeColor=#9673a6;fillColor=#e1d5e7;" parent="1" vertex="1">
          <mxGeometry x="1070.0000000000025" y="1090.0000000000025" width="80.00000000000028" height="20" as="geometry" />
        </mxCell>
        <mxCell id="0kv2POSV4pIMgLlQA3oe-514" value="17.11.20" style="strokeColor=#9673a6;fillColor=#e1d5e7;" parent="1" vertex="1">
          <mxGeometry x="1150" y="1090" width="80" height="20" as="geometry" />
        </mxCell>
        <mxCell id="0kv2POSV4pIMgLlQA3oe-515" value="7.12.20" style="strokeColor=#9673a6;fillColor=#e1d5e7;" parent="1" vertex="1">
          <mxGeometry x="1230.0000000000023" y="1090.0000000000027" width="80.00000000000028" height="20" as="geometry" />
        </mxCell>
        <mxCell id="0kv2POSV4pIMgLlQA3oe-516" value="2.5.1" style="strokeColor=#DEEDFF" parent="1" vertex="1">
          <mxGeometry x="630.0000000000007" y="1110.0000000000025" width="40" height="20" as="geometry" />
        </mxCell>
        <mxCell id="0kv2POSV4pIMgLlQA3oe-517" value="Freeze scene" style="align=left;strokeColor=#DEEDFF" parent="1" vertex="1">
          <mxGeometry x="670.0000000000007" y="1110.0000000000025" width="319.9999999999993" height="20" as="geometry" />
        </mxCell>
        <mxCell id="0kv2POSV4pIMgLlQA3oe-518" value="14 days" style="strokeColor=#DEEDFF" parent="1" vertex="1">
          <mxGeometry x="1070.0000000000023" y="1110.0000000000025" width="80.00000000000028" height="20" as="geometry" />
        </mxCell>
        <mxCell id="0kv2POSV4pIMgLlQA3oe-519" value="17.11.20" style="strokeColor=#DEEDFF" parent="1" vertex="1">
          <mxGeometry x="1150.0000000000027" y="1110.0000000000025" width="80.00000000000028" height="20" as="geometry" />
        </mxCell>
        <mxCell id="0kv2POSV4pIMgLlQA3oe-520" value="30.11.20" style="strokeColor=#DEEDFF" parent="1" vertex="1">
          <mxGeometry x="1230.0000000000023" y="1110.0000000000027" width="80.00000000000028" height="20" as="geometry" />
        </mxCell>
        <mxCell id="0kv2POSV4pIMgLlQA3oe-521" value="2.5.2" style="strokeColor=#DEEDFF" parent="1" vertex="1">
          <mxGeometry x="630.0000000000007" y="1130.0000000000027" width="40" height="20" as="geometry" />
        </mxCell>
        <mxCell id="0kv2POSV4pIMgLlQA3oe-522" value="Rack recognization" style="align=left;strokeColor=#DEEDFF" parent="1" vertex="1">
          <mxGeometry x="670.0000000000007" y="1130.0000000000027" width="319.9999999999993" height="20" as="geometry" />
        </mxCell>
        <mxCell id="0kv2POSV4pIMgLlQA3oe-523" value="14 days" style="strokeColor=#DEEDFF" parent="1" vertex="1">
          <mxGeometry x="1070.0000000000023" y="1130.0000000000027" width="80.00000000000028" height="20" as="geometry" />
        </mxCell>
        <mxCell id="0kv2POSV4pIMgLlQA3oe-524" value="17.11.20" style="strokeColor=#DEEDFF" parent="1" vertex="1">
          <mxGeometry x="1150.0000000000027" y="1130.0000000000027" width="80.00000000000028" height="20" as="geometry" />
        </mxCell>
        <mxCell id="0kv2POSV4pIMgLlQA3oe-525" value="30.11.20" style="strokeColor=#DEEDFF" parent="1" vertex="1">
          <mxGeometry x="1230.0000000000023" y="1130.0000000000032" width="80.00000000000028" height="20" as="geometry" />
        </mxCell>
        <mxCell id="0kv2POSV4pIMgLlQA3oe-526" value="2.5.3" style="strokeColor=#DEEDFF" parent="1" vertex="1">
          <mxGeometry x="630.0000000000014" y="1150.0000000000032" width="40" height="20" as="geometry" />
        </mxCell>
        <mxCell id="0kv2POSV4pIMgLlQA3oe-527" value="Pause session" style="align=left;strokeColor=#DEEDFF" parent="1" vertex="1">
          <mxGeometry x="670.0000000000014" y="1150.0000000000032" width="319.99999999999864" height="20" as="geometry" />
        </mxCell>
        <mxCell id="0kv2POSV4pIMgLlQA3oe-528" value="21 days" style="strokeColor=#DEEDFF" parent="1" vertex="1">
          <mxGeometry x="1070.0000000000032" y="1150.000000000003" width="80.00000000000028" height="20" as="geometry" />
        </mxCell>
        <mxCell id="0kv2POSV4pIMgLlQA3oe-529" value="17.11.20" style="strokeColor=#DEEDFF" parent="1" vertex="1">
          <mxGeometry x="1150.0000000000034" y="1150.000000000003" width="80.00000000000028" height="20" as="geometry" />
        </mxCell>
        <mxCell id="0kv2POSV4pIMgLlQA3oe-530" value="7.12.20" style="strokeColor=#DEEDFF" parent="1" vertex="1">
          <mxGeometry x="1230.000000000003" y="1150.0000000000032" width="80.00000000000028" height="20" as="geometry" />
        </mxCell>
        <mxCell id="0kv2POSV4pIMgLlQA3oe-531" value="Han LY" style="strokeColor=#9673a6;fillColor=#e1d5e7;" parent="1" vertex="1">
          <mxGeometry x="990.0000000000016" y="810.0000000000001" width="80.00000000000028" height="20" as="geometry" />
        </mxCell>
        <mxCell id="0kv2POSV4pIMgLlQA3oe-532" value="Han LY" style="strokeColor=#DEEDFF" parent="1" vertex="1">
          <mxGeometry x="990.0000000000016" y="830.0000000000003" width="80.00000000000028" height="20" as="geometry" />
        </mxCell>
        <mxCell id="0kv2POSV4pIMgLlQA3oe-533" value="Han LY" style="strokeColor=#DEEDFF" parent="1" vertex="1">
          <mxGeometry x="990.0000000000023" y="850.0000000000007" width="80.00000000000028" height="20" as="geometry" />
        </mxCell>
        <mxCell id="0kv2POSV4pIMgLlQA3oe-534" value="Han LY" style="strokeColor=#DEEDFF" parent="1" vertex="1">
          <mxGeometry x="990.0000000000023" y="870.0000000000006" width="80.00000000000028" height="20" as="geometry" />
        </mxCell>
        <mxCell id="0kv2POSV4pIMgLlQA3oe-535" value="Zhou SY" style="strokeColor=#9673a6;fillColor=#e1d5e7;" parent="1" vertex="1">
          <mxGeometry x="990.000000000002" y="890.0000000000009" width="80.00000000000028" height="20" as="geometry" />
        </mxCell>
        <mxCell id="0kv2POSV4pIMgLlQA3oe-536" value="Zhou SY" style="strokeColor=#DEEDFF" parent="1" vertex="1">
          <mxGeometry x="990.000000000002" y="910.0000000000009" width="80.00000000000028" height="20" as="geometry" />
        </mxCell>
        <mxCell id="0kv2POSV4pIMgLlQA3oe-537" value="Zhou SY" style="strokeColor=#DEEDFF" parent="1" vertex="1">
          <mxGeometry x="990.000000000002" y="930.0000000000011" width="80.00000000000028" height="20" as="geometry" />
        </mxCell>
        <mxCell id="0kv2POSV4pIMgLlQA3oe-538" value="Zhou SY" style="strokeColor=#DEEDFF" parent="1" vertex="1">
          <mxGeometry x="990.0000000000018" y="950.0000000000015" width="80.00000000000028" height="20" as="geometry" />
        </mxCell>
        <mxCell id="0kv2POSV4pIMgLlQA3oe-539" value="Zhou SY" style="strokeColor=#9673a6;fillColor=#e1d5e7;" parent="1" vertex="1">
          <mxGeometry x="990.0000000000018" y="970.0000000000014" width="80.00000000000028" height="20" as="geometry" />
        </mxCell>
        <mxCell id="0kv2POSV4pIMgLlQA3oe-540" value="Zhou SY" style="strokeColor=#DEEDFF" parent="1" vertex="1">
          <mxGeometry x="990.0000000000014" y="990.0000000000018" width="80.00000000000028" height="20" as="geometry" />
        </mxCell>
        <mxCell id="0kv2POSV4pIMgLlQA3oe-541" value="Zhou SY" style="strokeColor=#DEEDFF;fillColor=#FFFFFF" parent="1" vertex="1">
          <mxGeometry x="990.0000000000014" y="1010.0000000000018" width="80.00000000000028" height="20" as="geometry" />
        </mxCell>
        <mxCell id="0kv2POSV4pIMgLlQA3oe-542" value="" style="strokeColor=#9673a6;fillColor=#e1d5e7;" parent="1" vertex="1">
          <mxGeometry x="990.0000000000014" y="1030.000000000002" width="80.00000000000028" height="20" as="geometry" />
        </mxCell>
        <mxCell id="0kv2POSV4pIMgLlQA3oe-543" value="Han LY" style="strokeColor=#DEEDFF" parent="1" vertex="1">
          <mxGeometry x="990.0000000000027" y="1050.0000000000023" width="80.00000000000028" height="20" as="geometry" />
        </mxCell>
        <mxCell id="0kv2POSV4pIMgLlQA3oe-544" value="Zhou SY" style="strokeColor=#DEEDFF" parent="1" vertex="1">
          <mxGeometry x="990.0000000000027" y="1070.000000000002" width="80.00000000000028" height="20" as="geometry" />
        </mxCell>
        <mxCell id="0kv2POSV4pIMgLlQA3oe-545" value="" style="strokeColor=#9673a6;fillColor=#e1d5e7;" parent="1" vertex="1">
          <mxGeometry x="990.0000000000025" y="1090.0000000000025" width="80.00000000000028" height="20" as="geometry" />
        </mxCell>
        <mxCell id="0kv2POSV4pIMgLlQA3oe-546" value="Zhou SY" style="strokeColor=#DEEDFF" parent="1" vertex="1">
          <mxGeometry x="991.0000000000023" y="1110.0000000000025" width="80.00000000000028" height="20" as="geometry" />
        </mxCell>
        <mxCell id="0kv2POSV4pIMgLlQA3oe-547" value="Zhou SY" style="strokeColor=#DEEDFF" parent="1" vertex="1">
          <mxGeometry x="990.0000000000023" y="1130.0000000000027" width="80.00000000000028" height="20" as="geometry" />
        </mxCell>
        <mxCell id="0kv2POSV4pIMgLlQA3oe-548" value="Han LY" style="strokeColor=#DEEDFF" parent="1" vertex="1">
          <mxGeometry x="990.0000000000032" y="1150.000000000003" width="80.00000000000028" height="20" as="geometry" />
        </mxCell>
        <mxCell id="0kv2POSV4pIMgLlQA3oe-549" value="2" style="strokeColor=#DEEDFF;fillColor=#CCE5FE;" parent="1" vertex="1">
          <mxGeometry x="630" y="790.0000000000002" width="40" height="20" as="geometry" />
        </mxCell>
        <mxCell id="0kv2POSV4pIMgLlQA3oe-550" value="iOS" style="align=left;strokeColor=#DEEDFF;fillColor=#CCE5FE;" parent="1" vertex="1">
          <mxGeometry x="670" y="790.0000000000002" width="320" height="20" as="geometry" />
        </mxCell>
        <mxCell id="0kv2POSV4pIMgLlQA3oe-551" value="61 days" style="strokeColor=#DEEDFF;fillColor=#CCE5FE;" parent="1" vertex="1">
          <mxGeometry x="1070.0000000000018" y="790.0000000000001" width="80.00000000000028" height="20" as="geometry" />
        </mxCell>
        <mxCell id="0kv2POSV4pIMgLlQA3oe-552" value="6.10.20" style="strokeColor=#DEEDFF;fillColor=#CCE5FE;" parent="1" vertex="1">
          <mxGeometry x="1150.000000000002" y="790.0000000000001" width="80.00000000000028" height="20" as="geometry" />
        </mxCell>
        <mxCell id="0kv2POSV4pIMgLlQA3oe-553" value="7.12.20" style="strokeColor=#DEEDFF;fillColor=#CCE5FE;" parent="1" vertex="1">
          <mxGeometry x="1230.0000000000014" y="790.0000000000005" width="80.00000000000028" height="20" as="geometry" />
        </mxCell>
        <mxCell id="0kv2POSV4pIMgLlQA3oe-554" value="" style="strokeColor=#DEEDFF;fillColor=#CCE5FE;" parent="1" vertex="1">
          <mxGeometry x="990.0000000000018" y="790.0000000000001" width="80.00000000000028" height="20" as="geometry" />
        </mxCell>
        <mxCell id="0kv2POSV4pIMgLlQA3oe-584" value="Use me to align!" style="shape=ext;double=1;rounded=0;whiteSpace=wrap;html=1;strokeColor=#242629;fillColor=none;fontSize=43;opacity=80;align=center;" parent="1" vertex="1">
          <mxGeometry x="1280" y="210" width="1210" height="20" as="geometry" />
        </mxCell>
        <mxCell id="i1vYWbwsdPDP4e0yzq_W-279" value="Tao CY" style="shape=mxgraph.flowchart.process;fillColor=#AE4132;strokeColor=none;strokeWidth=2;opacity=50" vertex="1" parent="1">
          <mxGeometry x="2310" y="750" width="260" height="20" as="geometry" />
        </mxCell>
      </root>
    </mxGraphModel>
  </diagram>
</mxfile>
